<?xml version="1.0" encoding="UTF-8" standalone="no"?>
<!DOCTYPE svg PUBLIC "-//W3C//DTD SVG 1.1//EN" "http://www.w3.org/Graphics/SVG/1.1/DTD/svg11.dtd">
<!-- Generated by Microsoft Visio, SVG Export cellular-serial-setup.svg Page-1 -->
<svg xmlns="http://www.w3.org/2000/svg" xmlns:xlink="http://www.w3.org/1999/xlink" xmlns:ev="http://www.w3.org/2001/xml-events"
		xmlns:v="http://schemas.microsoft.com/visio/2003/SVGExtensions/" width="6.87817in" height="3.96949in"
		viewBox="0 0 495.228 285.803" xml:space="preserve" color-interpolation-filters="sRGB" class="st15">
	<v:documentProperties v:langID="1035" v:viewMarkup="false"/>

	<style type="text/css">
	<![CDATA[
		.st1 {fill:#ffffff;stroke:#000000;stroke-width:1}
		.st2 {fill:#6ad1e3;stroke:none;stroke-width:1}
		.st3 {fill:#000000;font-family:Arial;font-size:0.833336em}
		.st4 {font-size:1em}
		.st5 {fill:#0032a0;stroke:none;stroke-width:1}
		.st6 {fill:#ffffff;font-family:Arial;font-size:0.833336em}
		.st7 {fill:#768692;stroke:none;stroke-width:1}
		.st8 {fill:#000000}
		.st9 {stroke:#000000;stroke-dasharray:8,4;stroke-linecap:butt;stroke-width:1}
		.st10 {fill:none;stroke:none;stroke-width:1}
		.st11 {fill:#000000;font-family:Arial;font-size:0.666664em}
		.st12 {stroke:#000000;stroke-linecap:butt;stroke-width:1}
		.st13 {fill:#d9e1e2;stroke:none;stroke-width:1}
		.st14 {fill:#333f48;font-family:Arial;font-size:0.666664em}
		.st15 {fill:none;fill-rule:evenodd;font-size:12px;overflow:visible;stroke-linecap:square;stroke-miterlimit:3}
	]]>
	</style>

	<g v:mID="0" v:index="1" v:groupContext="foregroundPage">
		<title>Page-1</title>
		<v:pageProperties v:drawingScale="0.0393701" v:pageScale="0.0393701" v:drawingUnits="24" v:shadowOffsetX="8.50394"
				v:shadowOffsetY="-8.50394"/>
		<v:layer v:name="Connector" v:index="0"/>
		<g id="shape170-1" v:mID="170" v:groupContext="shape" transform="translate(8.08661,-1)">
			<title>Sheet.170</title>
			<rect x="0" y="255.756" width="127.559" height="30.0473" class="st1"/>
		</g>
		<g id="shape11-3" v:mID="11" v:groupContext="shape" transform="translate(1,-44.8817)">
			<title>Sheet.11</title>
			<desc>Host MCU (nRF54L15)</desc>
			<v:textBlock v:margins="rect(0,0,0,0)" v:tabSpace="42.5197" v:verticalAlign="0"/>
			<v:textRect cx="97.0866" cy="165.843" width="194.18" height="239.922"/>
			<rect x="0" y="45.8817" width="194.173" height="239.922" class="st2"/>
			<text x="74.03" y="66.88" class="st3" v:langID="1044"><v:paragraph v:horizAlign="1"/><v:tabList/><v:newlineChar/>Host MCU<v:newlineChar/><tspan
						x="70.41" dy="1.2em" class="st4">(nRF54L15) </tspan> </text>		</g>
		<g id="shape42-7" v:mID="42" v:groupContext="shape" transform="translate(21.994,-168.795)">
			<title>Sheet.42</title>
			<desc>Application</desc>
			<v:textBlock v:margins="rect(4,4,4,4)"/>
			<v:textRect cx="78.0857" cy="249.621" width="156.18" height="72.3648"/>
			<rect x="0" y="213.439" width="156.171" height="72.3648" class="st5"/>
			<text x="53.62" y="252.62" class="st6" v:langID="1035"><v:paragraph v:horizAlign="1" v:bulletSize="0.166667"/><v:tabList/>Application</text>		</g>
		<g id="shape46-10" v:mID="46" v:groupContext="shape" transform="translate(258.213,-44.8817)">
			<title>Sheet.46</title>
			<desc>nRF9151 (Cortex-M33)</desc>
			<v:textBlock v:margins="rect(0,0,0,0)" v:tabSpace="42.5197" v:verticalAlign="0"/>
			<v:textRect cx="97.1179" cy="165.843" width="194.24" height="239.922"/>
			<rect x="0" y="45.8817" width="194.236" height="239.922" class="st2"/>
			<text x="76.55" y="66.88" class="st3" v:langID="1044"><v:paragraph v:horizAlign="1"/><v:tabList/><v:newlineChar/>nRF9151<v:newlineChar/><v:paragraph
						v:horizAlign="1"/><tspan x="67.67" dy="1.2em" class="st4">(Cortex</tspan>-M33)</text>		</g>
		<g id="shape48-14" v:mID="48" v:groupContext="shape" transform="translate(277.378,-168.795)">
			<title>Sheet.48</title>
			<desc>Serial Modem application CMUX + AT Interface</desc>
			<v:textBlock v:margins="rect(4,4,4,4)"/>
			<v:textRect cx="78.1108" cy="249.621" width="156.23" height="72.3648"/>
			<rect x="0" y="213.439" width="156.222" height="72.3648" class="st5"/>
			<text x="21.97" y="246.62" class="st6" v:langID="1035"><v:paragraph v:horizAlign="1" v:bulletSize="0.166667"/><v:tabList/>Serial Modem application<v:newlineChar/><tspan
						x="30.46" dy="1.2em" class="st4" v:langID="1044">CMUX + AT Interface</tspan></text>		</g>
		<g id="shape81-18" v:mID="81" v:groupContext="shape" transform="translate(107.299,-86.8898)">
			<title>Nordic Middle Grey</title>
			<desc>UART Interface</desc>
			<v:textBlock v:margins="rect(4,4,4,4)"/>
			<v:textRect cx="28.3465" cy="252.071" width="56.7" height="67.4646"/>
			<rect x="0" y="218.339" width="56.6929" height="67.4646" class="st7"/>
			<text x="14.74" y="249.07" class="st6" v:langID="1035"><v:paragraph v:horizAlign="1" v:bulletSize="0.166667"/><v:tabList/>UART <tspan
						x="8.89" dy="1.2em" class="st4">Interface</tspan></text>		</g>
		<g id="shape82-22" v:mID="82" v:groupContext="shape" transform="translate(291.551,-86.8898)">
			<title>Nordic Middle Grey.82</title>
			<desc>UART Interface</desc>
			<v:textBlock v:margins="rect(4,4,4,4)"/>
			<v:textRect cx="28.3465" cy="252.071" width="56.7" height="67.4646"/>
			<rect x="0" y="218.339" width="56.6929" height="67.4646" class="st7"/>
			<text x="14.74" y="249.07" class="st6" v:langID="1035"><v:paragraph v:horizAlign="1" v:bulletSize="0.166667"/><v:tabList/>UART <tspan
						x="8.89" dy="1.2em" class="st4">Interface</tspan></text>		</g>
		<g id="shape88-26" v:mID="88" v:groupContext="shape" v:layerMember="0" transform="translate(195.173,-150.669)">
			<title>Dotted line</title>
			<v:userDefs>
				<v:ud v:nameU="Scale" v:val="VT0(1):26"/>
				<v:ud v:nameU="AntiScale" v:val="VT0(1):26"/>
				<v:ud v:nameU="visVersion" v:val="VT0(15):26"/>
			</v:userDefs>
			<path d="M-2.25 285.8 A2.25 2.25 -180 1 0 2.25 285.8 A2.25 2.25 -180 1 0 -2.25 285.8 ZM65.29 285.8 A2.25 2.25 -180 0
						 0 60.79 285.8 A2.25 2.25 -180 1 0 65.29 285.8 Z" class="st8"/>
			<path d="M-2.25 285.8 A2.25 2.25 -180 1 0 2.25 285.8 A2.25 2.25 -180 1 0 -2.25 285.8" class="st9"/>
			<path d="M65.29 285.8 A2.25 2.25 -180 0 0 60.79 285.8 A2.25 2.25 -180 1 0 65.29 285.8" class="st9"/>
			<path d="M2.25 285.8 L60.79 285.8" class="st9"/>
		</g>
		<g id="shape90-31" v:mID="90" v:groupContext="shape" v:layerMember="0"
				transform="translate(195.173,-142.165) rotate(2.33469E-05)">
			<title>Dotted line.90</title>
			<v:userDefs>
				<v:ud v:nameU="Scale" v:val="VT0(1):26"/>
				<v:ud v:nameU="AntiScale" v:val="VT0(1):26"/>
				<v:ud v:nameU="visVersion" v:val="VT0(15):26"/>
			</v:userDefs>
			<path d="M-2.25 285.8 A2.25 2.25 -180 1 0 2.25 285.8 A2.25 2.25 -180 1 0 -2.25 285.8 ZM65.29 285.8 A2.25 2.25 -180 0
						 0 60.79 285.8 A2.25 2.25 -180 1 0 65.29 285.8 Z" class="st8"/>
			<path d="M-2.25 285.8 A2.25 2.25 -180 1 0 2.25 285.8 A2.25 2.25 -180 1 0 -2.25 285.8" class="st9"/>
			<path d="M65.29 285.8 A2.25 2.25 -180 0 0 60.79 285.8 A2.25 2.25 -180 1 0 65.29 285.8" class="st9"/>
			<path d="M2.25 285.8 L60.79 285.8" class="st9"/>
		</g>
		<g id="shape97-36" v:mID="97" v:groupContext="shape" transform="translate(166.827,-145)">
			<title>Sheet.97</title>
			<desc>DTR</desc>
			<v:textBlock v:margins="rect(4,4,4,4)" v:tabSpace="42.5197"/>
			<v:textRect cx="16.2992" cy="280.134" width="32.6" height="11.3386"/>
			<rect x="0" y="274.465" width="32.5984" height="11.3386" class="st10"/>
			<text x="8.08" y="282.53" class="st11" v:langID="1044"><v:paragraph v:horizAlign="1"/><v:tabList/>DTR</text>		</g>
		<g id="shape99-39" v:mID="99" v:groupContext="shape" transform="translate(254.701,-145)">
			<title>Sheet.99</title>
			<desc>DTR</desc>
			<v:textBlock v:margins="rect(4,4,4,4)" v:tabSpace="42.5197"/>
			<v:textRect cx="16.2992" cy="280.134" width="32.6" height="11.3386"/>
			<rect x="0" y="274.465" width="32.5984" height="11.3386" class="st10"/>
			<text x="8.08" y="282.53" class="st11" v:langID="1044"><v:paragraph v:horizAlign="1"/><v:tabList/>DTR</text>		</g>
		<g id="shape100-42" v:mID="100" v:groupContext="shape" transform="translate(256.118,-136.496)">
			<title>Sheet.100</title>
			<desc>RI</desc>
			<v:textBlock v:margins="rect(4,4,4,4)" v:tabSpace="42.5197"/>
			<v:textRect cx="16.2992" cy="280.134" width="32.6" height="11.3386"/>
			<rect x="0" y="274.465" width="32.5984" height="11.3386" class="st10"/>
			<text x="6.3" y="282.53" class="st11" v:langID="1044"><v:paragraph v:horizAlign="1"/><v:tabList/>RI</text>		</g>
		<g id="shape101-45" v:mID="101" v:groupContext="shape" transform="translate(165.409,-136.496)">
			<title>Sheet.101</title>
			<desc>RI</desc>
			<v:textBlock v:margins="rect(4,4,4,4)" v:tabSpace="42.5197"/>
			<v:textRect cx="16.2992" cy="280.134" width="32.6" height="11.3386"/>
			<rect x="0" y="274.465" width="32.5984" height="11.3386" class="st10"/>
			<text x="6.3" y="282.53" class="st11" v:langID="1044"><v:paragraph v:horizAlign="1"/><v:tabList/>RI</text>		</g>
		<g id="shape103-48" v:mID="103" v:groupContext="shape" v:layerMember="0"
				transform="translate(130.101,-107.163) rotate(-13.1607)">
			<title>Dotted line.103</title>
			<v:userDefs>
				<v:ud v:nameU="Scale" v:val="VT0(1):26"/>
				<v:ud v:nameU="AntiScale" v:val="VT0(1):26"/>
				<v:ud v:nameU="visVersion" v:val="VT0(15):26"/>
			</v:userDefs>
			<path d="M-2.25 285.8 A2.25 2.25 -180 1 0 2.25 285.8 A2.25 2.25 -180 1 0 -2.25 285.8 ZM66.99 285.8 A2.25 2.25 -180 0
						 0 62.49 285.8 A2.25 2.25 -180 1 0 66.99 285.8 Z" class="st8"/>
			<path d="M-2.25 285.8 A2.25 2.25 -180 1 0 2.25 285.8 A2.25 2.25 -180 1 0 -2.25 285.8" class="st12"/>
			<path d="M66.99 285.8 A2.25 2.25 -180 0 0 62.49 285.8 A2.25 2.25 -180 1 0 66.99 285.8" class="st12"/>
			<path d="M2.25 285.8 L62.49 285.8" class="st12"/>
		</g>
		<g id="shape104-53" v:mID="104" v:groupContext="shape" v:layerMember="0"
				transform="translate(262.612,-121.906) rotate(13.6483)">
			<title>Dotted line.104</title>
			<v:userDefs>
				<v:ud v:nameU="Scale" v:val="VT0(1):26"/>
				<v:ud v:nameU="AntiScale" v:val="VT0(1):26"/>
				<v:ud v:nameU="visVersion" v:val="VT0(15):26"/>
			</v:userDefs>
			<path d="M-2.25 285.8 A2.25 2.25 -180 1 0 2.25 285.8 A2.25 2.25 -180 1 0 -2.25 285.8 ZM67.12 285.8 A2.25 2.25 -180 0
						 0 62.62 285.8 A2.25 2.25 -180 1 0 67.12 285.8 Z" class="st8"/>
			<path d="M-2.25 285.8 A2.25 2.25 -180 1 0 2.25 285.8 A2.25 2.25 -180 1 0 -2.25 285.8" class="st12"/>
			<path d="M67.12 285.8 A2.25 2.25 -180 0 0 62.62 285.8 A2.25 2.25 -180 1 0 67.12 285.8" class="st12"/>
			<path d="M2.25 285.8 L62.62 285.8" class="st12"/>
		</g>
		<g id="shape106-58" v:mID="106" v:groupContext="shape" v:layerMember="0"
				transform="translate(257.866,-93.5354) rotate(12.6712)">
			<title>Dotted line.106</title>
			<v:userDefs>
				<v:ud v:nameU="Scale" v:val="VT0(1):26"/>
				<v:ud v:nameU="AntiScale" v:val="VT0(1):26"/>
				<v:ud v:nameU="visVersion" v:val="VT0(15):26"/>
			</v:userDefs>
			<path d="M-2.25 285.8 A2.25 2.25 -180 1 0 2.25 285.8 A2.25 2.25 -180 1 0 -2.25 285.8 ZM66.86 285.8 A2.25 2.25 -180 0
						 0 62.36 285.8 A2.25 2.25 -180 1 0 66.86 285.8 Z" class="st8"/>
			<path d="M-2.25 285.8 A2.25 2.25 -180 1 0 2.25 285.8 A2.25 2.25 -180 1 0 -2.25 285.8" class="st12"/>
			<path d="M66.86 285.8 A2.25 2.25 -180 0 0 62.36 285.8 A2.25 2.25 -180 1 0 66.86 285.8" class="st12"/>
			<path d="M2.25 285.8 L62.36 285.8" class="st12"/>
		</g>
		<g id="shape107-63" v:mID="107" v:groupContext="shape" v:layerMember="0"
				transform="translate(132.481,-80.496) rotate(-12.6712)">
			<title>Dotted line.107</title>
			<v:userDefs>
				<v:ud v:nameU="Scale" v:val="VT0(1):26"/>
				<v:ud v:nameU="AntiScale" v:val="VT0(1):26"/>
				<v:ud v:nameU="visVersion" v:val="VT0(15):26"/>
			</v:userDefs>
			<path d="M-2.25 285.8 A2.25 2.25 -180 1 0 2.25 285.8 A2.25 2.25 -180 1 0 -2.25 285.8 ZM66.86 285.8 A2.25 2.25 -180 0
						 0 62.36 285.8 A2.25 2.25 -180 1 0 66.86 285.8 Z" class="st8"/>
			<path d="M-2.25 285.8 A2.25 2.25 -180 1 0 2.25 285.8 A2.25 2.25 -180 1 0 -2.25 285.8" class="st12"/>
			<path d="M66.86 285.8 A2.25 2.25 -180 0 0 62.36 285.8 A2.25 2.25 -180 1 0 66.86 285.8" class="st12"/>
			<path d="M2.25 285.8 L62.36 285.8" class="st12"/>
		</g>
		<g id="shape108-68" v:mID="108" v:groupContext="shape" transform="translate(258.213,-123.74)">
			<title>Sheet.108</title>
			<desc>TX</desc>
			<v:textBlock v:margins="rect(4,4,4,4)" v:tabSpace="42.5197"/>
			<v:textRect cx="10.2756" cy="280.134" width="20.56" height="11.3386"/>
			<rect x="0" y="274.465" width="20.5512" height="11.3386" class="st10"/>
			<text x="5.16" y="282.53" class="st11" v:langID="1044"><v:paragraph v:horizAlign="1"/><v:tabList/>TX</text>		</g>
		<g id="shape109-71" v:mID="109" v:groupContext="shape" transform="translate(174.622,-123.74)">
			<title>Sheet.109</title>
			<desc>TX</desc>
			<v:textBlock v:margins="rect(4,4,4,4)" v:tabSpace="42.5197"/>
			<v:textRect cx="10.2756" cy="280.134" width="20.56" height="11.3386"/>
			<rect x="0" y="274.465" width="20.5512" height="11.3386" class="st10"/>
			<text x="5.16" y="282.53" class="st11" v:langID="1044"><v:paragraph v:horizAlign="1"/><v:tabList/>TX</text>		</g>
		<g id="shape110-74" v:mID="110" v:groupContext="shape" transform="translate(174.622,-109)">
			<title>Sheet.110</title>
			<desc>RX</desc>
			<v:textBlock v:margins="rect(4,4,4,4)" v:tabSpace="42.5197"/>
			<v:textRect cx="10.2756" cy="280.134" width="20.56" height="11.3386"/>
			<rect x="0" y="274.465" width="20.5512" height="11.3386" class="st10"/>
			<text x="4.72" y="282.53" class="st11" v:langID="1044"><v:paragraph v:horizAlign="1"/><v:tabList/>RX</text>		</g>
		<g id="shape111-77" v:mID="111" v:groupContext="shape" transform="translate(163.992,-94.8268)">
			<title>Sheet.111</title>
			<desc>RTS</desc>
			<v:textBlock v:margins="rect(4,4,4,4)" v:tabSpace="42.5197"/>
			<v:textRect cx="15.5906" cy="280.134" width="31.19" height="11.3386"/>
			<rect x="0" y="274.465" width="31.1811" height="11.3386" class="st10"/>
			<text x="7.59" y="282.53" class="st11" v:langID="1044"><v:paragraph v:horizAlign="1"/><v:tabList/>RTS</text>		</g>
		<g id="shape112-80" v:mID="112" v:groupContext="shape" transform="translate(164.346,-81.7874)">
			<title>Sheet.112</title>
			<desc>CTS</desc>
			<v:textBlock v:margins="rect(4,4,4,4)" v:tabSpace="42.5197"/>
			<v:textRect cx="15.5906" cy="280.134" width="31.19" height="11.3386"/>
			<rect x="0" y="274.465" width="31.1811" height="11.3386" class="st10"/>
			<text x="7.59" y="282.53" class="st11" v:langID="1044"><v:paragraph v:horizAlign="1"/><v:tabList/>CTS</text>		</g>
		<g id="shape113-83" v:mID="113" v:groupContext="shape" transform="translate(258.213,-109)">
			<title>Sheet.113</title>
			<desc>RX</desc>
			<v:textBlock v:margins="rect(4,4,4,4)" v:tabSpace="42.5197"/>
			<v:textRect cx="10.2756" cy="280.134" width="20.56" height="11.3386"/>
			<rect x="0" y="274.465" width="20.5512" height="11.3386" class="st10"/>
			<text x="4.72" y="282.53" class="st11" v:langID="1044"><v:paragraph v:horizAlign="1"/><v:tabList/>RX</text>		</g>
		<g id="shape114-86" v:mID="114" v:groupContext="shape" transform="translate(258.213,-80.6536)">
			<title>Sheet.114</title>
			<desc>CTS</desc>
			<v:textBlock v:margins="rect(4,4,4,4)" v:tabSpace="42.5197"/>
			<v:textRect cx="15.5906" cy="280.134" width="31.19" height="11.3386"/>
			<rect x="0" y="274.465" width="31.1811" height="11.3386" class="st10"/>
			<text x="7.59" y="282.53" class="st11" v:langID="1044"><v:paragraph v:horizAlign="1"/><v:tabList/>CTS</text>		</g>
		<g id="shape115-89" v:mID="115" v:groupContext="shape" transform="translate(258.213,-95.9606)">
			<title>Sheet.115</title>
			<desc>RTS</desc>
			<v:textBlock v:margins="rect(4,4,4,4)" v:tabSpace="42.5197"/>
			<v:textRect cx="15.5906" cy="280.134" width="31.19" height="11.3386"/>
			<rect x="0" y="274.465" width="31.1811" height="11.3386" class="st10"/>
			<text x="7.59" y="282.53" class="st11" v:langID="1044"><v:paragraph v:horizAlign="1"/><v:tabList/>RTS</text>		</g>
		<g id="shape119-92" v:mID="119" v:groupContext="shape" transform="translate(312.811,-52.4488)">
			<title>Nordic Light Grey</title>
			<desc>Cellular modem LTE-M/NB-IoT</desc>
			<v:textBlock v:margins="rect(4,4,4,4)"/>
			<v:textRect cx="47.4803" cy="272.622" width="94.97" height="26.3622"/>
			<rect x="0" y="259.441" width="94.9606" height="26.3622" class="st13"/>
			<text x="19.47" y="270.22" class="st14" v:langID="1044"><v:paragraph v:horizAlign="1" v:bulletSize="0.166667"/><v:tabList/>Cellular modem<v:newlineChar/><tspan
						x="21.7" dy="1.2em" class="st4">LTE</tspan>-M/NB-IoT</text>		</g>
		<g id="shape129-96" v:mID="129" v:groupContext="shape" transform="translate(64.7795,-1)">
			<title>Sheet.129</title>
			<desc>UART signals</desc>
			<v:textBlock v:margins="rect(4,4,4,4)" v:tabSpace="42.5197"/>
			<v:textRect cx="35.4331" cy="277.866" width="70.87" height="15.874"/>
			<rect x="0" y="269.929" width="70.8661" height="15.874" class="st10"/>
			<text x="4" y="280.27" class="st11" v:langID="1044"><v:paragraph/><v:tabList/>UART signals</text>		</g>
		<g id="shape135-99" v:mID="135" v:groupContext="shape" transform="translate(63.3622,-10.9213)">
			<title>Sheet.135</title>
			<desc>Control signals</desc>
			<v:textBlock v:margins="rect(4,4,4,4)" v:tabSpace="42.5197"/>
			<v:textRect cx="35.4331" cy="277.866" width="70.87" height="15.874"/>
			<rect x="0" y="269.929" width="70.8661" height="15.874" class="st10"/>
			<text x="4" y="280.27" class="st11" v:langID="1044"><v:paragraph/><v:tabList/>Control signals</text>		</g>
		<g id="shape136-102" v:mID="136" v:groupContext="shape" v:layerMember="0" transform="translate(16.5906,-1.8504)">
			<title>Dynamic connector</title>
			<path d="M0 278.72 L45.35 278.72" class="st12"/>
		</g>
		<g id="shape173-105" v:mID="173" v:groupContext="shape" v:layerMember="0" transform="translate(18.0079,-11.7716)">
			<title>Dynamic connector.173</title>
			<path d="M0 278.72 L45.35 278.72" class="st9"/>
		</g>
		<g id="shape175-108" v:mID="175" v:groupContext="shape" v:layerMember="0"
				transform="translate(208.425,220.173) rotate(-90)">
			<title>One to many</title>
			<v:userDefs>
				<v:ud v:nameU="Scale" v:val="VT0(1):26"/>
				<v:ud v:nameU="AntiScale" v:val="VT0(1):26"/>
				<v:ud v:nameU="visVersion" v:val="VT0(15):26"/>
			</v:userDefs>
			<path d="M73.7 257.46 L48.19 271.63 L73.7 285.8" class="st12"/>
			<path d="M0 271.63 L73.7 271.63" class="st12"/>
		</g>
		<g id="shape177-112" v:mID="177" v:groupContext="shape" v:layerMember="0" transform="translate(407.772,-58.5433)">
			<title>Dynamic connector.177</title>
			<path d="M0 278.72 L72.28 278.72" class="st12"/>
		</g>
	</g>
</svg>
