<?xml version="1.0" encoding="UTF-8" standalone="no"?>
<!DOCTYPE svg PUBLIC "-//W3C//DTD SVG 1.1//EN" "http://www.w3.org/Graphics/SVG/1.1/DTD/svg11.dtd">
<!-- Generated by Microsoft Visio, SVG Export ppp-uart-sequence.svg Page-1 -->
<svg xmlns="http://www.w3.org/2000/svg" xmlns:xlink="http://www.w3.org/1999/xlink" xmlns:ev="http://www.w3.org/2001/xml-events"
		width="5.85764in" height="6.23204in" viewBox="0 0 421.75 448.707" xml:space="preserve" color-interpolation-filters="sRGB"
		class="st11">
	<style type="text/css">
	<![CDATA[
		.st1 {fill:none;stroke:none;stroke-linecap:butt;stroke-width:0.75}
		.st2 {fill:#000000;font-family:Arial;font-size:0.833336em}
		.st3 {fill:#0077c8;stroke:none;stroke-linecap:round;stroke-linejoin:round;stroke-width:0.75}
		.st4 {fill:#ffffff;font-family:Arial;font-size:0.833336em}
		.st5 {fill:#d9e1e2;stroke:none;stroke-linecap:round;stroke-linejoin:round;stroke-width:0.75}
		.st6 {fill:#333f48;font-family:Arial;font-size:0.833336em}
		.st7 {stroke:#000000;stroke-dasharray:6,3;stroke-linecap:butt;stroke-width:1.5}
		.st8 {fill:#6ad1e3;stroke:none;stroke-linecap:round;stroke-linejoin:round;stroke-width:0.75}
		.st9 {marker-end:url(#mrkr4-95);stroke:#000000;stroke-linecap:round;stroke-linejoin:round;stroke-width:2}
		.st10 {fill:#000000;fill-opacity:1;stroke:#000000;stroke-opacity:1;stroke-width:0.44247787610619}
		.st11 {fill:none;fill-rule:evenodd;font-size:12px;overflow:visible;stroke-linecap:square;stroke-miterlimit:3}
	]]>
	</style>

	<defs id="Markers">
		<g id="lend4">
			<path d="M 2 1 L 0 0 L 2 -1 L 2 1 " style="stroke:none"/>
		</g>
		<marker id="mrkr4-95" class="st10" refX="-4.52" orient="auto" markerUnits="strokeWidth" overflow="visible">
			<use xlink:href="#lend4" transform="scale(-2.26,-2.26) "/>
		</marker>
	</defs>
	<g>
		<title>Page-1</title>
		<g id="shape5-1" transform="translate(7.36536,-0.75)">
			<title>Sheet.5</title>
			<desc>Time</desc>
			<rect x="0" y="437.007" width="35.2693" height="11.7" class="st1"/>
			<text x="6.52" y="445.86" class="st2">Time</text>		</g>
		<g id="shape6-4" transform="translate(52.479,-5.1)">
			<title>Sheet.6</title>
			<rect x="0" y="13.707" width="352.241" height="435" class="st1"/>
		</g>
		<g id="shape7-6" transform="translate(52.479,-407.1)">
			<title>Sheet.7</title>
			<rect x="0" y="415.707" width="352.241" height="33" class="st3"/>
		</g>
		<g id="shape8-8" transform="translate(109.357,-415.5)">
			<title>Sheet.8</title>
			<desc>UART (AT command mode)</desc>
			<rect x="0" y="434.307" width="238.485" height="14.4" class="st1"/>
			<text x="57.28" y="444.51" class="st4">UART (AT command mode)</text>		</g>
		<g id="shape9-11" transform="translate(52.479,-287.1)">
			<title>Sheet.9</title>
			<rect x="0" y="328.707" width="352.241" height="120" class="st5"/>
		</g>
		<g id="shape10-13" transform="translate(66.0041,-382.95)">
			<title>Sheet.10</title>
			<desc>AT#XPPP=1</desc>
			<rect x="0" y="436.107" width="85.3959" height="12.6" class="st1"/>
			<text x="0" y="445.41" class="st6">AT#XPPP=1</text>		</g>
		<g id="shape11-16" transform="translate(201.482,-383.4)">
			<title>Sheet.11</title>
			<desc>// Enable PPP</desc>
			<rect x="0" y="437.907" width="105.718" height="10.8" class="st1"/>
			<text x="0" y="446.31" class="st6">// Enable PPP</text>		</g>
		<g id="shape12-19" transform="translate(66.0041,-363.45)">
			<title>Sheet.12</title>
			<desc>OK</desc>
			<rect x="0" y="436.107" width="19.012" height="12.6" class="st1"/>
			<text x="0" y="445.41" class="st6">OK</text>		</g>
		<g id="shape13-22" transform="translate(66.0041,-339.45)">
			<title>Sheet.13</title>
			<desc>AT+CFUN=1</desc>
			<rect x="0" y="436.107" width="85.3959" height="12.6" class="st1"/>
			<text x="0" y="445.41" class="st6">AT+CFUN=1</text>		</g>
		<g id="shape14-25" transform="translate(201.482,-339.9)">
			<title>Sheet.14</title>
			<desc>// Set modem to normal mode</desc>
			<rect x="0" y="437.907" width="219.518" height="10.8" class="st1"/>
			<text x="0" y="446.31" class="st6">// Set modem to normal mode</text>		</g>
		<g id="shape15-28" transform="translate(66.0041,-319.95)">
			<title>Sheet.15</title>
			<desc>OK</desc>
			<rect x="0" y="436.107" width="19.012" height="12.6" class="st1"/>
			<text x="0" y="445.41" class="st6">OK</text>		</g>
		<g id="shape16-31" transform="translate(66.0041,-295.95)">
			<title>Sheet.16</title>
			<desc>#XPPP: 1,0,0</desc>
			<rect x="0" y="436.107" width="113.846" height="12.6" class="st1"/>
			<text x="0" y="445.41" class="st6">#XPPP: 1,0,0</text>		</g>
		<g id="shape17-34" transform="translate(201.482,-296.4)">
			<title>Sheet.17</title>
			<desc>// PPP started notification</desc>
			<rect x="0" y="437.907" width="219.518" height="10.8" class="st1"/>
			<text x="0" y="446.31" class="st6">// PPP started notification</text>		</g>
		<g id="shape18-37" transform="translate(52.479,-287.1)">
			<title>Sheet.18</title>
			<path d="M0 448.71 L352.24 448.71" class="st7"/>
		</g>
		<g id="shape19-40" transform="translate(52.479,-260.1)">
			<title>Sheet.19</title>
			<rect x="0" y="421.707" width="352.241" height="27" class="st3"/>
		</g>
		<g id="shape20-42" transform="translate(118.502,-266.175)">
			<title>Sheet.20</title>
			<desc>UART enters PPP data mode</desc>
			<rect x="0" y="437.007" width="220.196" height="11.7" class="st1"/>
			<text x="44.79" y="445.86" class="st4">UART enters PPP data mode</text>		</g>
		<g id="shape21-45" transform="translate(52.479,-68.1)">
			<title>Sheet.21</title>
			<rect x="0" y="256.707" width="352.241" height="192" class="st8"/>
		</g>
		<g id="shape22-47" transform="translate(66.0041,-237.45)">
			<title>Sheet.22</title>
			<desc>sent [LCP ConfReq ..]</desc>
			<rect x="0" y="436.107" width="199.197" height="12.6" class="st1"/>
			<text x="0" y="445.41" class="st2">sent [LCP ConfReq ..]</text>		</g>
		<g id="shape23-50" transform="translate(66.0041,-223.65)">
			<title>Sheet.23</title>
			<desc>...</desc>
			<rect x="0" y="437.907" width="24.4311" height="10.8" class="st1"/>
			<text x="0" y="446.31" class="st2">...</text>		</g>
		<g id="shape24-53" transform="translate(66.0041,-208.95)">
			<title>Sheet.24</title>
			<desc>rcvd [LCP ConfAck ...]</desc>
			<rect x="0" y="436.107" width="208.68" height="12.6" class="st1"/>
			<text x="0" y="445.41" class="st2">rcvd [LCP ConfAck ...]</text>		</g>
		<g id="shape25-56" transform="translate(66.0041,-194.7)">
			<title>Sheet.25</title>
			<desc>sent [IPCP ConfReq ...]</desc>
			<rect x="0" y="436.107" width="218.164" height="12.6" class="st1"/>
			<text x="0" y="445.41" class="st2">sent [IPCP ConfReq ...]</text>		</g>
		<g id="shape26-59" transform="translate(66.0041,-180.9)">
			<title>Sheet.26</title>
			<desc>...</desc>
			<rect x="0" y="437.907" width="24.4311" height="10.8" class="st1"/>
			<text x="0" y="446.31" class="st2">...</text>		</g>
		<g id="shape27-62" transform="translate(66.0041,-166.2)">
			<title>Sheet.27</title>
			<desc>rcvd [IPCP ConfAck ...]</desc>
			<rect x="0" y="436.107" width="218.164" height="12.6" class="st1"/>
			<text x="0" y="445.41" class="st2">rcvd [IPCP ConfAck ...]</text>		</g>
		<g id="shape28-65" transform="translate(66.0041,-137.4)">
			<title>Sheet.28</title>
			<desc>// ... IP data traffic</desc>
			<rect x="0" y="437.907" width="178.875" height="10.8" class="st1"/>
			<text x="0" y="446.31" class="st2">// ... IP data traffic</text>		</g>
		<g id="shape29-68" transform="translate(66.0041,-104.4)">
			<title>Sheet.29</title>
			<desc>// PPP termination</desc>
			<rect x="0" y="437.907" width="146.361" height="10.8" class="st1"/>
			<text x="0" y="446.31" class="st2">// PPP termination</text>		</g>
		<g id="shape30-71" transform="translate(66.0041,-89.7)">
			<title>Sheet.30</title>
			<desc>sent [LCP TermReq ...]</desc>
			<rect x="0" y="436.107" width="208.68" height="12.6" class="st1"/>
			<text x="0" y="445.41" class="st2">sent [LCP TermReq ...]</text>		</g>
		<g id="shape31-74" transform="translate(66.0041,-75.45)">
			<title>Sheet.31</title>
			<desc>rcvd [LCP TermAck ...]</desc>
			<rect x="0" y="436.107" width="208.68" height="12.6" class="st1"/>
			<text x="0" y="445.41" class="st2">rcvd [LCP TermAck ...]</text>		</g>
		<g id="shape32-77" transform="translate(52.479,-68.1)">
			<title>Sheet.32</title>
			<path d="M0 448.71 L352.24 448.71" class="st7"/>
		</g>
		<g id="shape33-80" transform="translate(52.479,-41.1)">
			<title>Sheet.33</title>
			<rect x="0" y="421.707" width="352.241" height="27" class="st3"/>
		</g>
		<g id="shape34-82" transform="translate(92.0835,-47.175)">
			<title>Sheet.34</title>
			<desc>UART returns to AT command mode</desc>
			<rect x="0" y="437.007" width="273.032" height="11.7" class="st1"/>
			<text x="55.38" y="445.86" class="st4">UART returns to AT command mode</text>		</g>
		<g id="shape35-85" transform="translate(52.479,-17.1)">
			<title>Sheet.35</title>
			<rect x="0" y="424.707" width="352.241" height="24" class="st5"/>
		</g>
		<g id="shape36-87" transform="translate(66.0041,-24.45)">
			<title>Sheet.36</title>
			<desc>#XPPP: 0,0,0</desc>
			<rect x="0" y="436.107" width="113.846" height="12.6" class="st1"/>
			<text x="0" y="445.41" class="st6">#XPPP: 0,0,0</text>		</g>
		<g id="shape37-90" transform="translate(34,-438.6)">
			<title>Dynamic connector</title>
			<path d="M-9 448.71 L-9 862.67" class="st9"/>
		</g>
	</g>
</svg>
