<?xml version="1.0" encoding="UTF-8" standalone="no"?>
<!DOCTYPE svg PUBLIC "-//W3C//DTD SVG 1.1//EN" "http://www.w3.org/Graphics/SVG/1.1/DTD/svg11.dtd">
<!-- Generated by Microsoft Visio, SVG Export ppp-zephyr-sequence.svg Page-1 -->
<svg xmlns="http://www.w3.org/2000/svg" xmlns:xlink="http://www.w3.org/1999/xlink" xmlns:ev="http://www.w3.org/2001/xml-events"
		width="6.75382in" height="8.87579in" viewBox="0 0 486.275 639.057" xml:space="preserve" color-interpolation-filters="sRGB"
		class="st13">
	<style type="text/css">
	<![CDATA[
		.st1 {fill:none;stroke:none;stroke-linecap:butt;stroke-width:0.75}
		.st2 {fill:#000000;font-family:Arial;font-size:0.833336em}
		.st3 {fill:#0077c8;stroke:none;stroke-linecap:round;stroke-linejoin:round;stroke-width:0.75}
		.st4 {fill:#ffffff;font-family:Arial;font-size:0.833336em}
		.st5 {fill:#d9e1e2;stroke:none;stroke-linecap:butt;stroke-width:0.75}
		.st6 {fill:#333f48;font-family:Arial;font-size:0.833336em}
		.st7 {stroke:#000000;stroke-dasharray:6,3;stroke-linecap:butt;stroke-width:1.5}
		.st8 {fill:#6ad1e3;stroke:none;stroke-linecap:round;stroke-linejoin:round;stroke-width:0.75}
		.st9 {fill:#0077c8;stroke:none;stroke-linecap:butt;stroke-width:0.75}
		.st10 {stroke:#000000;stroke-linecap:butt;stroke-width:1.5}
		.st11 {marker-end:url(#mrkr4-166);stroke:#000000;stroke-linecap:round;stroke-linejoin:round;stroke-width:2}
		.st12 {fill:#000000;fill-opacity:1;stroke:#000000;stroke-opacity:1;stroke-width:0.44247787610619}
		.st13 {fill:none;fill-rule:evenodd;font-size:12px;overflow:visible;stroke-linecap:square;stroke-miterlimit:3}
	]]>
	</style>

	<defs id="Markers">
		<g id="lend4">
			<path d="M 2 1 L 0 0 L 2 -1 L 2 1 " style="stroke:none"/>
		</g>
		<marker id="mrkr4-166" class="st12" refX="-4.52" orient="auto" markerUnits="strokeWidth" overflow="visible">
			<use xlink:href="#lend4" transform="scale(-2.26,-2.26) "/>
		</marker>
	</defs>
	<g>
		<title>Page-1</title>
		<g id="shape5-1" transform="translate(7,-0.75)">
			<title>Sheet.5</title>
			<desc>Time</desc>
			<rect x="0" y="627.357" width="39.05" height="11.7" class="st1"/>
			<text x="8.41" y="636.21" class="st2">Time</text>		</g>
		<g id="shape6-4" transform="translate(58,-16.95)">
			<title>Sheet.6</title>
			<rect x="0" y="22.557" width="390" height="616.5" class="st1"/>
		</g>
		<g id="shape7-6" transform="translate(58,-600.45)">
			<title>Sheet.7</title>
			<rect x="0" y="606.057" width="390" height="33" class="st3"/>
		</g>
		<g id="shape8-8" transform="translate(120.975,-608.85)">
			<title>Sheet.8</title>
			<desc>UART (AT command mode)</desc>
			<rect x="0" y="624.657" width="264.05" height="14.4" class="st1"/>
			<text x="70.07" y="634.86" class="st4">UART (AT command mode)</text>		</g>
		<g id="shape9-11" transform="translate(58,-549.45)">
			<title>Sheet.9</title>
			<rect x="0" y="588.057" width="390" height="51" class="st5"/>
		</g>
		<g id="shape10-13" transform="translate(72.975,-574.8)">
			<title>Sheet.10</title>
			<desc>AT#XCMUX=1</desc>
			<rect x="0" y="626.457" width="105.05" height="12.6" class="st1"/>
			<text x="0" y="635.76" class="st6">AT#XCMUX=1</text>		</g>
		<g id="shape11-16" transform="translate(222.975,-575.25)">
			<title>Sheet.11</title>
			<desc>// Enter CMUX mode</desc>
			<rect x="0" y="628.257" width="162.05" height="10.8" class="st1"/>
			<text x="0" y="636.66" class="st6">// Enter CMUX mode</text>		</g>
		<g id="shape12-19" transform="translate(72.975,-553.8)">
			<title>Sheet.12</title>
			<desc>OK</desc>
			<rect x="0" y="626.457" width="21.05" height="12.6" class="st1"/>
			<text x="0" y="635.76" class="st6">OK</text>		</g>
		<g id="shape13-22" transform="translate(58,-549.45)">
			<title>Sheet.13</title>
			<path d="M0 639.06 L390 639.06" class="st7"/>
		</g>
		<g id="shape14-25" transform="translate(58,-522.45)">
			<title>Sheet.14</title>
			<rect x="0" y="612.057" width="390" height="27" class="st3"/>
		</g>
		<g id="shape15-27" transform="translate(92.1,-528.525)">
			<title>Sheet.15</title>
			<desc>UART enters CMUX mode (GSM 07.10)</desc>
			<rect x="0" y="627.357" width="321.8" height="11.7" class="st1"/>
			<text x="71.99" y="636.21" class="st4">UART enters CMUX mode (GSM 07.10)</text>		</g>
		<g id="shape16-30" transform="translate(58,-496.95)">
			<title>Sheet.16</title>
			<rect x="0" y="613.557" width="195" height="25.5" class="st3"/>
		</g>
		<g id="shape17-32" transform="translate(253,-496.95)">
			<title>Sheet.17</title>
			<rect x="0" y="613.557" width="195" height="25.5" class="st3"/>
		</g>
		<g id="shape18-34" transform="translate(48.225,-503.025)">
			<title>Sheet.18</title>
			<desc>DLC1 (AT command mode)</desc>
			<rect x="0" y="627.357" width="214.55" height="11.7" class="st1"/>
			<text x="46.14" y="636.21" class="st4">DLC1 (AT command mode)</text>		</g>
		<g id="shape19-37" transform="translate(301.725,-503.025)">
			<title>Sheet.19</title>
			<desc>DLC2 (PPP)</desc>
			<rect x="0" y="627.357" width="97.55" height="11.7" class="st1"/>
			<text x="21.27" y="636.21" class="st4">DLC2 (PPP)</text>		</g>
		<g id="shape20-40" transform="translate(58,-16.95)">
			<title>Sheet.20</title>
			<rect x="0" y="159.057" width="195" height="480" class="st5"/>
		</g>
		<g id="shape21-42" transform="translate(253,-391.95)">
			<title>Sheet.21</title>
			<rect x="0" y="534.057" width="195" height="105" class="st5"/>
		</g>
		<g id="shape22-44" transform="translate(253,-130.95)">
			<title>Sheet.22</title>
			<rect x="0" y="378.057" width="195" height="261" class="st5"/>
		</g>
		<g id="shape23-46" transform="translate(253,-16.95)">
			<title>Sheet.23</title>
			<rect x="0" y="525.057" width="195" height="114" class="st5"/>
		</g>
		<g id="shape24-48" transform="translate(69.975,-472.8)">
			<title>Sheet.24</title>
			<desc>AT#XPPP=1</desc>
			<rect x="0" y="626.457" width="94.55" height="12.6" class="st1"/>
			<text x="0" y="635.76" class="st6">AT#XPPP=1</text>		</g>
		<g id="shape25-51" transform="translate(69.975,-451.8)">
			<title>Sheet.25</title>
			<desc>OK</desc>
			<rect x="0" y="626.457" width="21.05" height="12.6" class="st1"/>
			<text x="0" y="635.76" class="st6">OK</text>		</g>
		<g id="shape26-54" transform="translate(69.975,-427.8)">
			<title>Sheet.26</title>
			<desc>AT+CFUN=1</desc>
			<rect x="0" y="626.457" width="94.55" height="12.6" class="st1"/>
			<text x="0" y="635.76" class="st6">AT+CFUN=1</text>		</g>
		<g id="shape27-57" transform="translate(69.975,-406.8)">
			<title>Sheet.27</title>
			<desc>OK</desc>
			<rect x="0" y="626.457" width="21.05" height="12.6" class="st1"/>
			<text x="0" y="635.76" class="st6">OK</text>		</g>
		<g id="shape28-60" transform="translate(69.975,-382.8)">
			<title>Sheet.28</title>
			<desc>AT#XCMUX=2</desc>
			<rect x="0" y="626.457" width="105.05" height="12.6" class="st1"/>
			<text x="0" y="635.76" class="st6">AT#XCMUX=2</text>		</g>
		<g id="shape29-63" transform="translate(69.975,-361.8)">
			<title>Sheet.29</title>
			<desc>OK</desc>
			<rect x="0" y="626.457" width="21.05" height="12.6" class="st1"/>
			<text x="0" y="635.76" class="st6">OK</text>		</g>
		<g id="shape30-66" transform="translate(58,-289.2)">
			<title>Sheet.30</title>
			<rect x="0" y="619.557" width="195" height="19.5" class="st3"/>
		</g>
		<g id="shape31-68" transform="translate(33.6,-292.275)">
			<title>Sheet.31</title>
			<desc>DLC1 enters PPP data mode</desc>
			<rect x="0" y="627.357" width="243.8" height="11.7" class="st1"/>
			<text x="57.42" y="636.21" class="st4">DLC1 enters PPP data mode</text>		</g>
		<g id="shape32-71" transform="translate(58,-99.45)">
			<title>Sheet.32</title>
			<rect x="0" y="449.307" width="195" height="189.75" class="st8"/>
		</g>
		<g id="shape33-73" transform="translate(69.975,-269.55)">
			<title>Sheet.33</title>
			<desc>sent [LCP ConfReq ..]</desc>
			<rect x="0" y="626.457" width="220.55" height="12.6" class="st1"/>
			<text x="0" y="635.76" class="st2">sent [LCP ConfReq ..]</text>		</g>
		<g id="shape34-76" transform="translate(69.975,-255.75)">
			<title>Sheet.34</title>
			<desc>...</desc>
			<rect x="0" y="628.257" width="27.05" height="10.8" class="st1"/>
			<text x="0" y="636.66" class="st2">...</text>		</g>
		<g id="shape35-79" transform="translate(69.975,-241.05)">
			<title>Sheet.35</title>
			<desc>rcvd [LCP ConfAck ...]</desc>
			<rect x="0" y="626.457" width="231.05" height="12.6" class="st1"/>
			<text x="0" y="635.76" class="st2">rcvd [LCP ConfAck ...]</text>		</g>
		<g id="shape36-82" transform="translate(69.975,-226.8)">
			<title>Sheet.36</title>
			<desc>sent [IPCP ConfReq ...]</desc>
			<rect x="0" y="626.457" width="241.55" height="12.6" class="st1"/>
			<text x="0" y="635.76" class="st2">sent [IPCP ConfReq ...]</text>		</g>
		<g id="shape37-85" transform="translate(69.975,-213)">
			<title>Sheet.37</title>
			<desc>...</desc>
			<rect x="0" y="628.257" width="27.05" height="10.8" class="st1"/>
			<text x="0" y="636.66" class="st2">...</text>		</g>
		<g id="shape38-88" transform="translate(69.975,-198.3)">
			<title>Sheet.38</title>
			<desc>rcvd [IPCP ConfAck ...]</desc>
			<rect x="0" y="626.457" width="241.55" height="12.6" class="st1"/>
			<text x="0" y="635.76" class="st2">rcvd [IPCP ConfAck ...]</text>		</g>
		<g id="shape39-91" transform="translate(69.975,-169.5)">
			<title>Sheet.39</title>
			<desc>// ... IP data traffic</desc>
			<rect x="0" y="628.257" width="198.05" height="10.8" class="st1"/>
			<text x="0" y="636.66" class="st2">// ... IP data traffic</text>		</g>
		<g id="shape40-94" transform="translate(69.975,-136.5)">
			<title>Sheet.40</title>
			<desc>// PPP termination</desc>
			<rect x="0" y="628.257" width="162.05" height="10.8" class="st1"/>
			<text x="0" y="636.66" class="st2">// PPP termination</text>		</g>
		<g id="shape41-97" transform="translate(69.975,-121.8)">
			<title>Sheet.41</title>
			<desc>sent [LCP TermReq ...]</desc>
			<rect x="0" y="626.457" width="231.05" height="12.6" class="st1"/>
			<text x="0" y="635.76" class="st2">sent [LCP TermReq ...]</text>		</g>
		<g id="shape42-100" transform="translate(69.975,-107.55)">
			<title>Sheet.42</title>
			<desc>rcvd [LCP TermAck ...]</desc>
			<rect x="0" y="626.457" width="231.05" height="12.6" class="st1"/>
			<text x="0" y="635.76" class="st2">rcvd [LCP TermAck ...]</text>		</g>
		<g id="shape43-103" transform="translate(58,-79.95)">
			<title>Sheet.43</title>
			<rect x="0" y="619.557" width="195" height="19.5" class="st3"/>
		</g>
		<g id="shape44-105" transform="translate(62.85,-83.025)">
			<title>Sheet.44</title>
			<desc>PPP detach from DLC</desc>
			<rect x="0" y="627.357" width="185.3" height="11.7" class="st1"/>
			<text x="43.46" y="636.21" class="st4">PPP detach from DLC</text>		</g>
		<g id="shape45-108" transform="translate(58,-79.95)">
			<title>Sheet.45</title>
			<path d="M0 639.06 L390 639.06" class="st7"/>
		</g>
		<g id="shape46-111" transform="translate(58,-60.45)">
			<title>Sheet.46</title>
			<rect x="0" y="619.557" width="195" height="19.5" class="st3"/>
		</g>
		<g id="shape47-113" transform="translate(33.6,-63.525)">
			<title>Sheet.47</title>
			<desc>AT channel switch to DLC1</desc>
			<rect x="0" y="627.357" width="243.8" height="11.7" class="st1"/>
			<text x="61.59" y="636.21" class="st4">AT channel switch to DLC1</text>		</g>
		<g id="shape48-116" transform="translate(257.85,-63.525)">
			<title>Sheet.48</title>
			<desc>CMUX channel unused</desc>
			<rect x="0" y="627.357" width="185.3" height="11.7" class="st1"/>
			<text x="41.23" y="636.21" class="st2">CMUX channel unused</text>		</g>
		<g id="shape49-119" transform="translate(69.975,-40.8)">
			<title>Sheet.49</title>
			<desc>AT+CFUN=0</desc>
			<rect x="0" y="626.457" width="94.55" height="12.6" class="st1"/>
			<text x="0" y="635.76" class="st6">AT+CFUN=0</text>		</g>
		<g id="shape50-122" transform="translate(69.975,-19.8)">
			<title>Sheet.50</title>
			<desc>OK</desc>
			<rect x="0" y="626.457" width="21.05" height="12.6" class="st1"/>
			<text x="0" y="635.76" class="st6">OK</text>		</g>
		<g id="shape51-125" transform="translate(257.85,-473.025)">
			<title>Sheet.51</title>
			<desc>CMUX channel unused</desc>
			<rect x="0" y="627.357" width="185.3" height="11.7" class="st1"/>
			<text x="41.23" y="636.21" class="st2">CMUX channel unused</text>		</g>
		<g id="shape52-128" transform="translate(58,-352.2)">
			<title>Sheet.52</title>
			<path d="M0 639.06 L390 639.06" class="st7"/>
		</g>
		<g id="shape53-131" transform="translate(58,-332.7)">
			<title>Sheet.53</title>
			<rect x="0" y="619.557" width="195" height="19.5" class="st9"/>
		</g>
		<g id="shape54-133" transform="translate(253,-332.7)">
			<title>Sheet.54</title>
			<rect x="0" y="619.557" width="195" height="19.5" class="st3"/>
		</g>
		<g id="shape55-135" transform="translate(57.975,-335.775)">
			<title>Sheet.55</title>
			<desc>PPP assigned to DLC1</desc>
			<rect x="0" y="627.357" width="195.05" height="11.7" class="st3"/>
			<text x="46.38" y="636.21" class="st4">PPP assigned to DLC1</text>		</g>
		<g id="shape56-138" transform="translate(228.6,-335.775)">
			<title>Sheet.56</title>
			<desc>AT channel switch to DLC2</desc>
			<rect x="0" y="627.357" width="243.8" height="11.7" class="st1"/>
			<text x="61.59" y="636.21" class="st4">AT channel switch to DLC2</text>		</g>
		<g id="shape57-141" transform="translate(253,-308.7)">
			<title>Sheet.57</title>
			<rect x="0" y="615.057" width="195" height="24" class="st5"/>
		</g>
		<g id="shape58-143" transform="translate(62.85,-316.275)">
			<title>Sheet.58</title>
			<desc>CMUX channel unused</desc>
			<rect x="0" y="627.357" width="185.3" height="11.7" class="st1"/>
			<text x="41.23" y="636.21" class="st2">CMUX channel unused</text>		</g>
		<g id="shape59-146" transform="translate(264.975,-316.05)">
			<title>Sheet.59</title>
			<desc>+CGEV: ME PDN ACT ...</desc>
			<rect x="0" y="626.457" width="220.55" height="12.6" class="st1"/>
			<text x="0" y="635.76" class="st6">+CGEV: ME PDN ACT ...</text>		</g>
		<g id="shape60-149" transform="translate(264.975,-292.05)">
			<title>Sheet.60</title>
			<desc>#XPPP: 1,0,0</desc>
			<rect x="0" y="626.457" width="126.05" height="12.6" class="st1"/>
			<text x="0" y="635.76" class="st6">#XPPP: 1,0,0</text>		</g>
		<g id="shape61-152" transform="translate(264.975,-198.3)">
			<title>Sheet.61</title>
			<desc>#XPPP: 1,1,0</desc>
			<rect x="0" y="626.457" width="126.05" height="12.6" class="st1"/>
			<text x="0" y="635.76" class="st6">#XPPP: 1,1,0</text>		</g>
		<g id="shape62-155" transform="translate(264.975,-96.3)">
			<title>Sheet.62</title>
			<desc>#XPPP: 0,0,0</desc>
			<rect x="0" y="626.457" width="126.05" height="12.6" class="st1"/>
			<text x="0" y="635.76" class="st6">#XPPP: 0,0,0</text>		</g>
		<g id="shape63-158" transform="translate(892.057,116.607) rotate(90)">
			<title>Sheet.63</title>
			<path d="M0 639.06 L505.5 639.06" class="st10"/>
		</g>
		<g id="shape65-161" transform="translate(16,-628.95)">
			<title>Dynamic connector</title>
			<path d="M9 639.06 L9 1237.52" class="st11"/>
		</g>
	</g>
</svg>
