<?xml version="1.0" encoding="UTF-8" standalone="no"?>
<!DOCTYPE svg PUBLIC "-//W3C//DTD SVG 1.1//EN" "http://www.w3.org/Graphics/SVG/1.1/DTD/svg11.dtd">
<!-- Generated by Microsoft Visio, SVG Export ppp-zephyr-sequence.svg Page-1 -->
<svg xmlns="http://www.w3.org/2000/svg" xmlns:xlink="http://www.w3.org/1999/xlink" xmlns:ev="http://www.w3.org/2001/xml-events"
		xmlns:v="http://schemas.microsoft.com/visio/2003/SVGExtensions/" width="6.24549in" height="6.70718in"
		viewBox="0 0 449.675 482.917" xml:space="preserve" color-interpolation-filters="sRGB" class="st11">
	<v:documentProperties v:langID="1033" v:viewMarkup="false"/>

	<style type="text/css">
	<![CDATA[
		.st1 {stroke:#333f48;stroke-linecap:butt;stroke-width:1.125}
		.st2 {fill:#333f48;stroke:none;stroke-linecap:butt;stroke-width:0.75}
		.st3 {fill:none;stroke:none;stroke-linecap:butt;stroke-width:0.75}
		.st4 {fill:#333f48;font-family:Arial;font-size:0.75em}
		.st5 {fill:#0077c8;stroke:none;stroke-linecap:butt;stroke-width:0.75}
		.st6 {fill:#ffffff;font-family:Arial;font-size:0.812508em}
		.st7 {fill:#d9e1e2;stroke:none;stroke-linecap:butt;stroke-width:0.75}
		.st8 {stroke:#333f48;stroke-dasharray:4.5,2.25;stroke-linecap:butt;stroke-width:1.125}
		.st9 {stroke:#768692;stroke-linecap:butt;stroke-width:0.75}
		.st10 {fill:#6ad1e3;stroke:none;stroke-linecap:butt;stroke-width:0.75}
		.st11 {fill:none;fill-rule:evenodd;font-size:12px;overflow:visible;stroke-linecap:square;stroke-miterlimit:3}
	]]>
	</style>

	<g v:mID="0" v:index="1" v:groupContext="foregroundPage">
		<title>Page-1</title>
		<v:pageProperties v:drawingScale="1" v:pageScale="1" v:drawingUnits="19" v:shadowOffsetX="9" v:shadowOffsetY="-9"/>
		<g id="shape1-1" v:mID="1" v:groupContext="shape" transform="translate(490.442,1.125) rotate(90)">
			<title>Sheet.1</title>
			<path d="M0 482.92 L466.34 482.92" class="st1"/>
		</g>
		<g id="shape2-4" v:mID="2" v:groupContext="shape" transform="translate(3.775,-10.95)">
			<title>Sheet.2</title>
			<path d="M0 475.42 L7.5 475.42 L3.75 482.92 L0 475.42 Z" class="st2"/>
		</g>
		<g id="shape3-6" v:mID="3" v:groupContext="shape" transform="translate(0.75,-0.75)">
			<title>Sheet.3</title>
			<desc>Time</desc>
			<v:textBlock v:margins="rect(0,0,0,0)"/>
			<v:textRect cx="18.025" cy="477.517" width="36.05" height="10.8"/>
			<rect x="0" y="472.117" width="36.05" height="10.8" class="st3"/>
			<text x="0" y="480.22" class="st4" v:langID="1033"><v:paragraph/><v:tabList/>Time</text>		</g>
		<g id="shape4-9" v:mID="4" v:groupContext="shape" transform="translate(18.775,-462.45)">
			<title>Sheet.4</title>
			<rect x="0" y="463.417" width="411.75" height="19.5" class="st5"/>
		</g>
		<g id="shape5-11" v:mID="5" v:groupContext="shape" transform="translate(117,-464.775)">
			<title>Sheet.5</title>
			<desc>UART (AT command mode)</desc>
			<v:textBlock v:margins="rect(0,0,0,0)"/>
			<v:textRect cx="107.275" cy="477.067" width="214.56" height="11.7"/>
			<rect x="0" y="471.217" width="214.55" height="11.7" class="st3"/>
			<text x="46.87" y="479.99" class="st6" v:langID="1033"><v:paragraph v:horizAlign="1"/><v:tabList/>UART (AT command mode)</text>		</g>
		<g id="shape6-14" v:mID="6" v:groupContext="shape" transform="translate(18.775,-394.95)">
			<title>Sheet.6</title>
			<rect x="0" y="415.417" width="411.75" height="67.5" class="st7"/>
		</g>
		<g id="shape7-16" v:mID="7" v:groupContext="shape" transform="translate(27.75,-445.5)">
			<title>Sheet.7</title>
			<desc>AT#XCMUXURC=1</desc>
			<v:textBlock v:margins="rect(0,0,0,0)"/>
			<v:textRect cx="58.525" cy="477.517" width="117.06" height="10.8"/>
			<rect x="0" y="472.117" width="117.05" height="10.8" class="st3"/>
			<text x="0" y="480.22" class="st4" v:langID="1033"><v:paragraph/><v:tabList/>AT#XCMUXURC=1</text>		</g>
		<g id="shape8-19" v:mID="8" v:groupContext="shape" transform="translate(147.75,-445.5)">
			<title>Sheet.8</title>
			<desc>// Route URCs to DLC1</desc>
			<v:textBlock v:margins="rect(0,0,0,0)"/>
			<v:textRect cx="94.525" cy="477.517" width="189.06" height="10.8"/>
			<rect x="0" y="472.117" width="189.05" height="10.8" class="st3"/>
			<text x="0" y="480.22" class="st4" v:langID="1033"><v:paragraph/><v:tabList/>// Route URCs to DLC1</text>		</g>
		<g id="shape9-22" v:mID="9" v:groupContext="shape" transform="translate(27.75,-432.75)">
			<title>Sheet.9</title>
			<desc>OK</desc>
			<v:textBlock v:margins="rect(0,0,0,0)"/>
			<v:textRect cx="9.025" cy="477.517" width="18.05" height="10.8"/>
			<rect x="0" y="472.117" width="18.05" height="10.8" class="st3"/>
			<text x="0" y="480.22" class="st4" v:langID="1033"><v:paragraph/><v:tabList/>OK</text>		</g>
		<g id="shape10-25" v:mID="10" v:groupContext="shape" transform="translate(27.75,-420)">
			<title>Sheet.10</title>
			<desc>AT+CMUX=0</desc>
			<v:textBlock v:margins="rect(0,0,0,0)"/>
			<v:textRect cx="40.525" cy="477.517" width="81.06" height="10.8"/>
			<rect x="0" y="472.117" width="81.05" height="10.8" class="st3"/>
			<text x="0" y="480.22" class="st4" v:langID="1033"><v:paragraph/><v:tabList/>AT+CMUX=0</text>		</g>
		<g id="shape11-28" v:mID="11" v:groupContext="shape" transform="translate(147.75,-420)">
			<title>Sheet.11</title>
			<desc>// Start CMUX multiplexer</desc>
			<v:textBlock v:margins="rect(0,0,0,0)"/>
			<v:textRect cx="112.525" cy="477.517" width="225.06" height="10.8"/>
			<rect x="0" y="472.117" width="225.05" height="10.8" class="st3"/>
			<text x="0" y="480.22" class="st4" v:langID="1033"><v:paragraph/><v:tabList/>// Start CMUX multiplexer</text>		</g>
		<g id="shape12-31" v:mID="12" v:groupContext="shape" transform="translate(27.75,-407.25)">
			<title>Sheet.12</title>
			<desc>OK</desc>
			<v:textBlock v:margins="rect(0,0,0,0)"/>
			<v:textRect cx="9.025" cy="477.517" width="18.05" height="10.8"/>
			<rect x="0" y="472.117" width="18.05" height="10.8" class="st3"/>
			<text x="0" y="480.22" class="st4" v:langID="1033"><v:paragraph/><v:tabList/>OK</text>		</g>
		<g id="shape13-34" v:mID="13" v:groupContext="shape" transform="translate(18.775,-394.95)">
			<title>Sheet.13</title>
			<path d="M0 482.92 L411.75 482.92" class="st8"/>
		</g>
		<g id="shape14-37" v:mID="14" v:groupContext="shape" transform="translate(18.775,-373.2)">
			<title>Sheet.14</title>
			<rect x="0" y="463.417" width="411.75" height="19.5" class="st5"/>
		</g>
		<g id="shape15-39" v:mID="15" v:groupContext="shape" transform="translate(48.75,-376.275)">
			<title>Sheet.15</title>
			<desc>CMUX engaged — two DLC channels open</desc>
			<v:textBlock v:margins="rect(0,0,0,0)"/>
			<v:textRect cx="175.525" cy="477.067" width="351.06" height="11.7"/>
			<rect x="0" y="471.217" width="351.05" height="11.7" class="st3"/>
			<text x="81.49" y="479.99" class="st6" v:langID="1033"><v:paragraph v:horizAlign="1"/><v:tabList/>CMUX engaged — two DLC channels open</text>		</g>
		<g id="shape16-42" v:mID="16" v:groupContext="shape" transform="translate(18.775,-353.7)">
			<title>Sheet.16</title>
			<rect x="0" y="463.417" width="202.5" height="19.5" class="st7"/>
		</g>
		<g id="shape17-44" v:mID="17" v:groupContext="shape" transform="translate(37.125,-356.775)">
			<title>Sheet.17</title>
			<desc>DLC1 (AT channel)</desc>
			<v:textBlock v:margins="rect(0,0,0,0)"/>
			<v:textRect cx="82.9" cy="477.067" width="165.8" height="11.7"/>
			<rect x="0" y="471.217" width="165.8" height="11.7" class="st3"/>
			<text x="41.17" y="479.99" class="st6" v:langID="1033"><v:paragraph v:horizAlign="1"/><v:tabList/>DLC1 (AT channel)</text>		</g>
		<g id="shape18-47" v:mID="18" v:groupContext="shape" transform="translate(224.275,-353.7)">
			<title>Sheet.18</title>
			<rect x="0" y="463.417" width="206.25" height="19.5" class="st7"/>
		</g>
		<g id="shape19-49" v:mID="19" v:groupContext="shape" transform="translate(239.25,-356.775)">
			<title>Sheet.19</title>
			<desc>DLC2 (PPP channel)</desc>
			<v:textBlock v:margins="rect(0,0,0,0)"/>
			<v:textRect cx="87.775" cy="477.067" width="175.56" height="11.7"/>
			<rect x="0" y="471.217" width="175.55" height="11.7" class="st3"/>
			<text x="42.52" y="479.99" class="st6" v:langID="1033"><v:paragraph v:horizAlign="1"/><v:tabList/>DLC2 (PPP channel)</text>		</g>
		<g id="shape20-52" v:mID="20" v:groupContext="shape" transform="translate(704.192,109.717) rotate(90)">
			<title>Sheet.20</title>
			<path d="M0 482.92 L315.75 482.92" class="st9"/>
		</g>
		<g id="shape21-55" v:mID="21" v:groupContext="shape" transform="translate(18.775,-57.45)">
			<title>Sheet.21</title>
			<rect x="0" y="186.667" width="202.5" height="296.25" class="st7"/>
		</g>
		<g id="shape22-57" v:mID="22" v:groupContext="shape" transform="translate(27.75,-337.5)">
			<title>Sheet.22</title>
			<desc>AT+CFUN=1</desc>
			<v:textBlock v:margins="rect(0,0,0,0)"/>
			<v:textRect cx="40.525" cy="477.517" width="81.06" height="10.8"/>
			<rect x="0" y="472.117" width="81.05" height="10.8" class="st3"/>
			<text x="0" y="480.22" class="st4" v:langID="1033"><v:paragraph/><v:tabList/>AT+CFUN=1</text>		</g>
		<g id="shape23-60" v:mID="23" v:groupContext="shape" transform="translate(27.75,-324.75)">
			<title>Sheet.23</title>
			<desc>OK</desc>
			<v:textBlock v:margins="rect(0,0,0,0)"/>
			<v:textRect cx="9.025" cy="477.517" width="18.05" height="10.8"/>
			<rect x="0" y="472.117" width="18.05" height="10.8" class="st3"/>
			<text x="0" y="480.22" class="st4" v:langID="1033"><v:paragraph/><v:tabList/>OK</text>		</g>
		<g id="shape24-63" v:mID="24" v:groupContext="shape" transform="translate(27.75,-312)">
			<title>Sheet.24</title>
			<desc>+CEREG: 1</desc>
			<v:textBlock v:margins="rect(0,0,0,0)"/>
			<v:textRect cx="40.525" cy="477.517" width="81.06" height="10.8"/>
			<rect x="0" y="472.117" width="81.05" height="10.8" class="st3"/>
			<text x="0" y="480.22" class="st4" v:langID="1033"><v:paragraph/><v:tabList/>+CEREG: 1</text>		</g>
		<g id="shape25-66" v:mID="25" v:groupContext="shape" transform="translate(27.75,-299.25)">
			<title>Sheet.25</title>
			<desc>// network registered URC</desc>
			<v:textBlock v:margins="rect(0,0,0,0)"/>
			<v:textRect cx="112.525" cy="477.517" width="225.06" height="10.8"/>
			<rect x="0" y="472.117" width="225.05" height="10.8" class="st3"/>
			<text x="0" y="480.22" class="st4" v:langID="1033"><v:paragraph/><v:tabList/>// network registered URC</text>		</g>
		<g id="shape26-69" v:mID="26" v:groupContext="shape" transform="translate(27.75,-273.75)">
			<title>Sheet.26</title>
			<desc>// modem_chat active</desc>
			<v:textBlock v:margins="rect(0,0,0,0)"/>
			<v:textRect cx="90.025" cy="477.517" width="180.06" height="10.8"/>
			<rect x="0" y="472.117" width="180.05" height="10.8" class="st3"/>
			<text x="0" y="480.22" class="st4" v:langID="1033"><v:paragraph/><v:tabList/>// modem_chat active</text>		</g>
		<g id="shape27-72" v:mID="27" v:groupContext="shape" transform="translate(27.75,-225.75)">
			<title>Sheet.27</title>
			<desc>+CGEV: ME PDN ACT 0</desc>
			<v:textBlock v:margins="rect(0,0,0,0)"/>
			<v:textRect cx="85.525" cy="477.517" width="171.06" height="10.8"/>
			<rect x="0" y="472.117" width="171.05" height="10.8" class="st3"/>
			<text x="0" y="480.22" class="st4" v:langID="1033"><v:paragraph/><v:tabList/>+CGEV: ME PDN ACT 0</text>		</g>
		<g id="shape28-75" v:mID="28" v:groupContext="shape" transform="translate(27.75,-213)">
			<title>Sheet.28</title>
			<desc>// URC on DLC1 (PPP running)</desc>
			<v:textBlock v:margins="rect(0,0,0,0)"/>
			<v:textRect cx="126.025" cy="477.517" width="252.06" height="10.8"/>
			<rect x="0" y="472.117" width="252.05" height="10.8" class="st3"/>
			<text x="0" y="480.22" class="st4" v:langID="1033"><v:paragraph/><v:tabList/>// URC on DLC1 (PPP running)</text>		</g>
		<g id="shape29-78" v:mID="29" v:groupContext="shape" transform="translate(224.275,-263.7)">
			<title>Sheet.29</title>
			<rect x="0" y="392.917" width="206.25" height="90" class="st7"/>
		</g>
		<g id="shape30-80" v:mID="30" v:groupContext="shape" transform="translate(233.25,-337.5)">
			<title>Sheet.30</title>
			<desc>// dial script on DLC2</desc>
			<v:textBlock v:margins="rect(0,0,0,0)"/>
			<v:textRect cx="99.025" cy="477.517" width="198.06" height="10.8"/>
			<rect x="0" y="472.117" width="198.05" height="10.8" class="st3"/>
			<text x="0" y="480.22" class="st4" v:langID="1033"><v:paragraph/><v:tabList/>// dial script on DLC2</text>		</g>
		<g id="shape31-83" v:mID="31" v:groupContext="shape" transform="translate(233.25,-286.5)">
			<title>Sheet.31</title>
			<desc>AT+CGDATA</desc>
			<v:textBlock v:margins="rect(0,0,0,0)"/>
			<v:textRect cx="40.525" cy="477.517" width="81.06" height="10.8"/>
			<rect x="0" y="472.117" width="81.05" height="10.8" class="st3"/>
			<text x="0" y="480.22" class="st4" v:langID="1033"><v:paragraph/><v:tabList/>AT+CGDATA</text>		</g>
		<g id="shape32-86" v:mID="32" v:groupContext="shape" transform="translate(233.25,-273.75)">
			<title>Sheet.32</title>
			<desc>CONNECT</desc>
			<v:textBlock v:margins="rect(0,0,0,0)"/>
			<v:textRect cx="31.525" cy="477.517" width="63.06" height="10.8"/>
			<rect x="0" y="472.117" width="63.05" height="10.8" class="st3"/>
			<text x="0" y="480.22" class="st4" v:langID="1033"><v:paragraph/><v:tabList/>CONNECT</text>		</g>
		<g id="shape33-89" v:mID="33" v:groupContext="shape" transform="translate(224.275,-263.7)">
			<title>Sheet.33</title>
			<path d="M0 482.92 L206.25 482.92" class="st8"/>
		</g>
		<g id="shape34-92" v:mID="34" v:groupContext="shape" transform="translate(224.275,-241.95)">
			<title>Sheet.34</title>
			<rect x="0" y="463.417" width="206.25" height="19.5" class="st5"/>
		</g>
		<g id="shape35-94" v:mID="35" v:groupContext="shape" transform="translate(205.125,-245.025)">
			<title>Sheet.35</title>
			<desc>DLC2 enters PPP data mode</desc>
			<v:textBlock v:margins="rect(0,0,0,0)"/>
			<v:textRect cx="121.9" cy="477.067" width="243.8" height="11.7"/>
			<rect x="0" y="471.217" width="243.8" height="11.7" class="st3"/>
			<text x="59.03" y="479.99" class="st6" v:langID="1033"><v:paragraph v:horizAlign="1"/><v:tabList/>DLC2 enters PPP data mode</text>		</g>
		<g id="shape36-97" v:mID="36" v:groupContext="shape" transform="translate(224.275,-75.45)">
			<title>Sheet.36</title>
			<rect x="0" y="316.417" width="206.25" height="166.5" class="st10"/>
		</g>
		<g id="shape37-99" v:mID="37" v:groupContext="shape" transform="translate(233.25,-225.75)">
			<title>Sheet.37</title>
			<desc>sent [LCP ConfReq ..]</desc>
			<v:textBlock v:margins="rect(0,0,0,0)"/>
			<v:textRect cx="94.525" cy="477.517" width="189.06" height="10.8"/>
			<rect x="0" y="472.117" width="189.05" height="10.8" class="st3"/>
			<text x="0" y="480.22" class="st4" v:langID="1033"><v:paragraph/><v:tabList/>sent [LCP ConfReq ..]</text>		</g>
		<g id="shape38-102" v:mID="38" v:groupContext="shape" transform="translate(233.25,-213)">
			<title>Sheet.38</title>
			<desc>...</desc>
			<v:textBlock v:margins="rect(0,0,0,0)"/>
			<v:textRect cx="13.525" cy="477.517" width="27.05" height="10.8"/>
			<rect x="0" y="472.117" width="27.05" height="10.8" class="st3"/>
			<text x="0" y="480.22" class="st4" v:langID="1033"><v:paragraph/><v:tabList/>...</text>		</g>
		<g id="shape39-105" v:mID="39" v:groupContext="shape" transform="translate(233.25,-200.25)">
			<title>Sheet.39</title>
			<desc>rcvd [LCP ConfAck ...]</desc>
			<v:textBlock v:margins="rect(0,0,0,0)"/>
			<v:textRect cx="99.025" cy="477.517" width="198.06" height="10.8"/>
			<rect x="0" y="472.117" width="198.05" height="10.8" class="st3"/>
			<text x="0" y="480.22" class="st4" v:langID="1033"><v:paragraph/><v:tabList/>rcvd [LCP ConfAck ...]</text>		</g>
		<g id="shape40-108" v:mID="40" v:groupContext="shape" transform="translate(233.25,-187.5)">
			<title>Sheet.40</title>
			<desc>sent [IPCP ConfReq ...]</desc>
			<v:textBlock v:margins="rect(0,0,0,0)"/>
			<v:textRect cx="103.525" cy="477.517" width="207.06" height="10.8"/>
			<rect x="0" y="472.117" width="207.05" height="10.8" class="st3"/>
			<text x="0" y="480.22" class="st4" v:langID="1033"><v:paragraph/><v:tabList/>sent [IPCP ConfReq ...]</text>		</g>
		<g id="shape41-111" v:mID="41" v:groupContext="shape" transform="translate(233.25,-174.75)">
			<title>Sheet.41</title>
			<desc>...</desc>
			<v:textBlock v:margins="rect(0,0,0,0)"/>
			<v:textRect cx="13.525" cy="477.517" width="27.05" height="10.8"/>
			<rect x="0" y="472.117" width="27.05" height="10.8" class="st3"/>
			<text x="0" y="480.22" class="st4" v:langID="1033"><v:paragraph/><v:tabList/>...</text>		</g>
		<g id="shape42-114" v:mID="42" v:groupContext="shape" transform="translate(233.25,-162)">
			<title>Sheet.42</title>
			<desc>rcvd [IPCP ConfAck ...]</desc>
			<v:textBlock v:margins="rect(0,0,0,0)"/>
			<v:textRect cx="103.525" cy="477.517" width="207.06" height="10.8"/>
			<rect x="0" y="472.117" width="207.05" height="10.8" class="st3"/>
			<text x="0" y="480.22" class="st4" v:langID="1033"><v:paragraph/><v:tabList/>rcvd [IPCP ConfAck ...]</text>		</g>
		<g id="shape43-117" v:mID="43" v:groupContext="shape" transform="translate(233.25,-141)">
			<title>Sheet.43</title>
			<desc>// ... IP data traffic</desc>
			<v:textBlock v:margins="rect(0,0,0,0)"/>
			<v:textRect cx="99.025" cy="477.517" width="198.06" height="10.8"/>
			<rect x="0" y="472.117" width="198.05" height="10.8" class="st3"/>
			<text x="0" y="480.22" class="st4" v:langID="1033"><v:paragraph/><v:tabList/>// ... IP data traffic</text>		</g>
		<g id="shape44-120" v:mID="44" v:groupContext="shape" transform="translate(233.25,-113.25)">
			<title>Sheet.44</title>
			<desc>// PPP termination</desc>
			<v:textBlock v:margins="rect(0,0,0,0)"/>
			<v:textRect cx="81.025" cy="477.517" width="162.06" height="10.8"/>
			<rect x="0" y="472.117" width="162.05" height="10.8" class="st3"/>
			<text x="0" y="480.22" class="st4" v:langID="1033"><v:paragraph/><v:tabList/>// PPP termination</text>		</g>
		<g id="shape45-123" v:mID="45" v:groupContext="shape" transform="translate(233.25,-100.5)">
			<title>Sheet.45</title>
			<desc>sent [LCP TermReq ...]</desc>
			<v:textBlock v:margins="rect(0,0,0,0)"/>
			<v:textRect cx="99.025" cy="477.517" width="198.06" height="10.8"/>
			<rect x="0" y="472.117" width="198.05" height="10.8" class="st3"/>
			<text x="0" y="480.22" class="st4" v:langID="1033"><v:paragraph/><v:tabList/>sent [LCP TermReq ...]</text>		</g>
		<g id="shape46-126" v:mID="46" v:groupContext="shape" transform="translate(233.25,-87.75)">
			<title>Sheet.46</title>
			<desc>rcvd [LCP TermAck ...]</desc>
			<v:textBlock v:margins="rect(0,0,0,0)"/>
			<v:textRect cx="99.025" cy="477.517" width="198.06" height="10.8"/>
			<rect x="0" y="472.117" width="198.05" height="10.8" class="st3"/>
			<text x="0" y="480.22" class="st4" v:langID="1033"><v:paragraph/><v:tabList/>rcvd [LCP TermAck ...]</text>		</g>
		<g id="shape47-129" v:mID="47" v:groupContext="shape" transform="translate(224.275,-75.45)">
			<title>Sheet.47</title>
			<path d="M0 482.92 L206.25 482.92" class="st8"/>
		</g>
		<g id="shape48-132" v:mID="48" v:groupContext="shape" transform="translate(224.275,-53.7)">
			<title>Sheet.48</title>
			<rect x="0" y="463.417" width="206.25" height="19.5" class="st5"/>
		</g>
		<g id="shape49-134" v:mID="49" v:groupContext="shape" transform="translate(214.875,-56.775)">
			<title>Sheet.49</title>
			<desc>DLC2 returns to AT mode</desc>
			<v:textBlock v:margins="rect(0,0,0,0)"/>
			<v:textRect cx="112.15" cy="477.067" width="224.3" height="11.7"/>
			<rect x="0" y="471.217" width="224.3" height="11.7" class="st3"/>
			<text x="56.61" y="479.99" class="st6" v:langID="1033"><v:paragraph v:horizAlign="1"/><v:tabList/>DLC2 returns to AT mode</text>		</g>
		<g id="shape50-137" v:mID="50" v:groupContext="shape" transform="translate(18.775,-53.7)">
			<title>Sheet.50</title>
			<path d="M0 482.92 L411.75 482.92" class="st8"/>
		</g>
		<g id="shape51-140" v:mID="51" v:groupContext="shape" transform="translate(18.775,-8.7)">
			<title>Sheet.51</title>
			<rect x="0" y="440.167" width="411.75" height="42.75" class="st7"/>
		</g>
		<g id="shape52-142" v:mID="52" v:groupContext="shape" transform="translate(27.75,-34.5)">
			<title>Sheet.52</title>
			<desc>AT+CFUN=0</desc>
			<v:textBlock v:margins="rect(0,0,0,0)"/>
			<v:textRect cx="40.525" cy="477.517" width="81.06" height="10.8"/>
			<rect x="0" y="472.117" width="81.05" height="10.8" class="st3"/>
			<text x="0" y="480.22" class="st4" v:langID="1033"><v:paragraph/><v:tabList/>AT+CFUN=0</text>		</g>
		<g id="shape53-145" v:mID="53" v:groupContext="shape" transform="translate(27.75,-21.75)">
			<title>Sheet.53</title>
			<desc>OK</desc>
			<v:textBlock v:margins="rect(0,0,0,0)"/>
			<v:textRect cx="9.025" cy="477.517" width="18.05" height="10.8"/>
			<rect x="0" y="472.117" width="18.05" height="10.8" class="st3"/>
			<text x="0" y="480.22" class="st4" v:langID="1033"><v:paragraph/><v:tabList/>OK</text>		</g>
	</g>
</svg>
