<?xml version="1.0" encoding="UTF-8" standalone="no"?>
<!DOCTYPE svg PUBLIC "-//W3C//DTD SVG 1.1//EN" "http://www.w3.org/Graphics/SVG/1.1/DTD/svg11.dtd">
<!-- Generated by Microsoft Visio, SVG Export ppp-cmux-sequence.svg Page-1 -->
<svg xmlns="http://www.w3.org/2000/svg" xmlns:xlink="http://www.w3.org/1999/xlink" xmlns:ev="http://www.w3.org/2001/xml-events"
		width="7.15486in" height="7.29454in" viewBox="0 0 515.15 525.207" xml:space="preserve" color-interpolation-filters="sRGB"
		class="st16">
	<style type="text/css">
	<![CDATA[
		.st1 {fill:none;stroke:none;stroke-linecap:butt;stroke-width:0.75}
		.st2 {fill:#000000;font-family:Arial;font-size:0.833336em}
		.st3 {fill:#0077c8;stroke:none;stroke-linecap:round;stroke-linejoin:round;stroke-width:0.75}
		.st4 {fill:#ffffff;font-family:Arial;font-size:0.833336em}
		.st5 {fill:#d9e1e2;stroke:none;stroke-linecap:round;stroke-linejoin:round;stroke-width:0.75}
		.st6 {fill:#333f48;font-family:Arial;font-size:0.833336em}
		.st7 {stroke:#000000;stroke-dasharray:6,3;stroke-linecap:butt;stroke-width:1.5}
		.st8 {fill:#0077c8;stroke:none;stroke-linecap:butt;stroke-width:0.75}
		.st9 {fill:#ffffff;font-family:Arial;font-size:0.916672em}
		.st10 {fill:#6ad1e3;stroke:none;stroke-linecap:round;stroke-linejoin:round;stroke-width:0.75}
		.st11 {fill:#d9e1e2;stroke:none;stroke-linecap:butt;stroke-width:0.75}
		.st12 {stroke:#000000;stroke-linecap:butt;stroke-width:1.5}
		.st13 {fill:#333f48;font-family:Arial;font-size:0.916672em}
		.st14 {marker-end:url(#mrkr4-132);stroke:#000000;stroke-linecap:round;stroke-linejoin:round;stroke-width:2}
		.st15 {fill:#000000;fill-opacity:1;stroke:#000000;stroke-opacity:1;stroke-width:0.44247787610619}
		.st16 {fill:none;fill-rule:evenodd;font-size:12px;overflow:visible;stroke-linecap:square;stroke-miterlimit:3}
	]]>
	</style>

	<defs id="Markers">
		<g id="lend4">
			<path d="M 2 1 L 0 0 L 2 -1 L 2 1 " style="stroke:none"/>
		</g>
		<marker id="mrkr4-132" class="st15" refX="-4.52" orient="auto" markerUnits="strokeWidth" overflow="visible">
			<use xlink:href="#lend4" transform="scale(-2.26,-2.26) "/>
		</marker>
	</defs>
	<g>
		<title>Page-1</title>
		<g id="shape5-1" transform="translate(8.85,-0.75)">
			<title>Sheet.5</title>
			<desc>Time</desc>
			<rect x="0" y="513.507" width="39.05" height="11.7" class="st1"/>
			<text x="8.41" y="522.36" class="st2">Time</text>		</g>
		<g id="shape6-4" transform="translate(65.875,-15.6)">
			<title>Sheet.6</title>
			<rect x="0" y="22.707" width="390" height="502.5" class="st1"/>
		</g>
		<g id="shape7-6" transform="translate(65.875,-485.1)">
			<title>Sheet.7</title>
			<rect x="0" y="492.207" width="390" height="33" class="st3"/>
		</g>
		<g id="shape8-8" transform="translate(128.85,-493.5)">
			<title>Sheet.8</title>
			<desc>UART (AT command mode)</desc>
			<rect x="0" y="510.807" width="264.05" height="14.4" class="st1"/>
			<text x="70.07" y="521.01" class="st4">UART (AT command mode)</text>		</g>
		<g id="shape9-11" transform="translate(65.875,-434.1)">
			<title>Sheet.9</title>
			<rect x="0" y="474.207" width="390" height="51" class="st5"/>
		</g>
		<g id="shape10-13" transform="translate(80.85,-459.45)">
			<title>Sheet.10</title>
			<desc>AT#XCMUX=1</desc>
			<rect x="0" y="512.607" width="105.05" height="12.6" class="st1"/>
			<text x="0" y="521.91" class="st6">AT#XCMUX=1</text>		</g>
		<g id="shape11-16" transform="translate(230.85,-459.9)">
			<title>Sheet.11</title>
			<desc>// Enter CMUX mode</desc>
			<rect x="0" y="514.407" width="162.05" height="10.8" class="st1"/>
			<text x="0" y="522.81" class="st6">// Enter CMUX mode</text>		</g>
		<g id="shape12-19" transform="translate(80.85,-438.45)">
			<title>Sheet.12</title>
			<desc>OK</desc>
			<rect x="0" y="512.607" width="21.05" height="12.6" class="st1"/>
			<text x="0" y="521.91" class="st6">OK</text>		</g>
		<g id="shape13-22" transform="translate(65.875,-434.1)">
			<title>Sheet.13</title>
			<path d="M0 525.21 L390 525.21" class="st7"/>
		</g>
		<g id="shape14-25" transform="translate(65.875,-407.1)">
			<title>Sheet.14</title>
			<rect x="0" y="498.207" width="390" height="27" class="st3"/>
		</g>
		<g id="shape15-27" transform="translate(99.975,-413.175)">
			<title>Sheet.15</title>
			<desc>UART enters CMUX mode (GSM 07.10)</desc>
			<rect x="0" y="513.507" width="321.8" height="11.7" class="st1"/>
			<text x="71.99" y="522.36" class="st4">UART enters CMUX mode (GSM 07.10)</text>		</g>
		<g id="shape16-30" transform="translate(65.875,-381.6)">
			<title>Sheet.16</title>
			<rect x="0" y="499.707" width="195" height="25.5" class="st3"/>
		</g>
		<g id="shape17-32" transform="translate(260.875,-381.6)">
			<title>Sheet.17</title>
			<rect x="0" y="499.707" width="195" height="25.5" class="st8"/>
		</g>
		<g id="shape18-34" transform="translate(56.1,-387.675)">
			<title>Sheet.18</title>
			<desc>DLC1 (AT command mode)</desc>
			<rect x="0" y="513.507" width="214.55" height="11.7" class="st1"/>
			<text x="46.14" y="522.36" class="st4">DLC1 (AT command mode)</text>		</g>
		<g id="shape19-37" transform="translate(309.6,-387.675)">
			<title>Sheet.19</title>
			<desc>DLC2 (PPP)</desc>
			<rect x="0" y="513.507" width="97.55" height="11.7" class="st3"/>
			<text x="18.52" y="522.66" class="st9">DLC2 (PPP)</text>		</g>
		<g id="shape20-40" transform="translate(65.875,-15.6)">
			<title>Sheet.20</title>
			<rect x="0" y="159.207" width="195" height="366" class="st5"/>
		</g>
		<g id="shape21-42" transform="translate(260.875,-276.6)">
			<title>Sheet.21</title>
			<rect x="0" y="420.207" width="195" height="105" class="st5"/>
		</g>
		<g id="shape22-44" transform="translate(260.875,-66.6)">
			<title>Sheet.22</title>
			<rect x="0" y="315.207" width="195" height="210" class="st10"/>
		</g>
		<g id="shape23-46" transform="translate(260.875,-39.6)">
			<title>Sheet.23</title>
			<rect x="0" y="498.207" width="195" height="27" class="st3"/>
		</g>
		<g id="shape24-48" transform="translate(260.875,-15.6)">
			<title>Sheet.24</title>
			<rect x="0" y="501.207" width="195" height="24" class="st11"/>
		</g>
		<g id="shape25-50" transform="translate(786.082,118.107) rotate(90)">
			<title>Sheet.25</title>
			<path d="M0 525.21 L391.5 525.21" class="st12"/>
		</g>
		<g id="shape26-53" transform="translate(77.85,-357.45)">
			<title>Sheet.26</title>
			<desc>AT#XPPP=1</desc>
			<rect x="0" y="512.607" width="94.55" height="12.6" class="st1"/>
			<text x="0" y="521.91" class="st6">AT#XPPP=1</text>		</g>
		<g id="shape27-56" transform="translate(77.85,-336.45)">
			<title>Sheet.27</title>
			<desc>OK</desc>
			<rect x="0" y="512.607" width="21.05" height="12.6" class="st1"/>
			<text x="0" y="521.91" class="st6">OK</text>		</g>
		<g id="shape28-59" transform="translate(77.85,-312.45)">
			<title>Sheet.28</title>
			<desc>AT+CFUN=1</desc>
			<rect x="0" y="512.607" width="94.55" height="12.6" class="st1"/>
			<text x="0" y="521.91" class="st6">AT+CFUN=1</text>		</g>
		<g id="shape29-62" transform="translate(77.85,-291.45)">
			<title>Sheet.29</title>
			<desc>OK</desc>
			<rect x="0" y="512.607" width="21.05" height="12.6" class="st1"/>
			<text x="0" y="521.91" class="st6">OK</text>		</g>
		<g id="shape30-65" transform="translate(77.85,-265.2)">
			<title>Sheet.30</title>
			<desc>#XPPP: 1,0,0</desc>
			<rect x="0" y="512.607" width="126.05" height="12.6" class="st1"/>
			<text x="0" y="521.91" class="st6">#XPPP: 1,0,0</text>		</g>
		<g id="shape31-68" transform="translate(265.725,-357.675)">
			<title>Sheet.31</title>
			<desc>CMUX channel unused</desc>
			<rect x="0" y="513.507" width="185.3" height="11.7" class="st1"/>
			<text x="41.23" y="522.36" class="st2">CMUX channel unused</text>		</g>
		<g id="shape32-71" transform="translate(260.875,-276.6)">
			<title>Sheet.32</title>
			<path d="M0 525.21 L195 525.21" class="st7"/>
		</g>
		<g id="shape33-74" transform="translate(260.875,-257.1)">
			<title>Sheet.33</title>
			<rect x="0" y="505.707" width="195" height="19.5" class="st3"/>
		</g>
		<g id="shape34-76" transform="translate(236.475,-260.175)">
			<title>Sheet.34</title>
			<desc>DLC2 enters PPP data mode</desc>
			<rect x="0" y="513.507" width="243.8" height="11.7" class="st1"/>
			<text x="57.42" y="522.36" class="st4">DLC2 enters PPP data mode</text>		</g>
		<g id="shape35-79" transform="translate(272.85,-235.95)">
			<title>Sheet.35</title>
			<desc>sent [LCP ConfReq ..]</desc>
			<rect x="0" y="512.607" width="220.55" height="12.6" class="st1"/>
			<text x="0" y="521.91" class="st2">sent [LCP ConfReq ..]</text>		</g>
		<g id="shape36-82" transform="translate(272.85,-222.15)">
			<title>Sheet.36</title>
			<desc>...</desc>
			<rect x="0" y="514.407" width="27.05" height="10.8" class="st1"/>
			<text x="0" y="522.81" class="st2">...</text>		</g>
		<g id="shape37-85" transform="translate(272.85,-207.45)">
			<title>Sheet.37</title>
			<desc>rcvd [LCP ConfAck ...]</desc>
			<rect x="0" y="512.607" width="231.05" height="12.6" class="st1"/>
			<text x="0" y="521.91" class="st2">rcvd [LCP ConfAck ...]</text>		</g>
		<g id="shape38-88" transform="translate(272.85,-193.2)">
			<title>Sheet.38</title>
			<desc>sent [IPCP ConfReq ...]</desc>
			<rect x="0" y="512.607" width="241.55" height="12.6" class="st1"/>
			<text x="0" y="521.91" class="st2">sent [IPCP ConfReq ...]</text>		</g>
		<g id="shape39-91" transform="translate(272.85,-179.4)">
			<title>Sheet.39</title>
			<desc>...</desc>
			<rect x="0" y="514.407" width="27.05" height="10.8" class="st1"/>
			<text x="0" y="522.81" class="st2">...</text>		</g>
		<g id="shape40-94" transform="translate(272.85,-164.7)">
			<title>Sheet.40</title>
			<desc>rcvd [IPCP ConfAck ...]</desc>
			<rect x="0" y="512.607" width="241.55" height="12.6" class="st1"/>
			<text x="0" y="521.91" class="st2">rcvd [IPCP ConfAck ...]</text>		</g>
		<g id="shape41-97" transform="translate(272.85,-135.9)">
			<title>Sheet.41</title>
			<desc>// ... IP data traffic</desc>
			<rect x="0" y="514.407" width="198.05" height="10.8" class="st1"/>
			<text x="0" y="522.81" class="st2">// ... IP data traffic</text>		</g>
		<g id="shape42-100" transform="translate(272.85,-102.9)">
			<title>Sheet.42</title>
			<desc>// PPP termination</desc>
			<rect x="0" y="514.407" width="162.05" height="10.8" class="st1"/>
			<text x="0" y="522.81" class="st2">// PPP termination</text>		</g>
		<g id="shape43-103" transform="translate(272.85,-88.2)">
			<title>Sheet.43</title>
			<desc>sent [LCP TermReq ...]</desc>
			<rect x="0" y="512.607" width="231.05" height="12.6" class="st1"/>
			<text x="0" y="521.91" class="st2">sent [LCP TermReq ...]</text>		</g>
		<g id="shape44-106" transform="translate(272.85,-73.95)">
			<title>Sheet.44</title>
			<desc>rcvd [LCP TermAck ...]</desc>
			<rect x="0" y="512.607" width="231.05" height="12.6" class="st1"/>
			<text x="0" y="521.91" class="st2">rcvd [LCP TermAck ...]</text>		</g>
		<g id="shape45-109" transform="translate(260.875,-66.6)">
			<title>Sheet.45</title>
			<path d="M0 525.21 L195 525.21" class="st7"/>
		</g>
		<g id="shape46-112" transform="translate(246.225,-45.675)">
			<title>Sheet.46</title>
			<desc>DLC2 is detach from PPP</desc>
			<rect x="0" y="513.507" width="224.3" height="11.7" class="st1"/>
			<text x="55.18" y="522.36" class="st4">DLC2 is detach from PPP</text>		</g>
		<g id="shape47-115" transform="translate(77.85,-31.2)">
			<title>Sheet.47</title>
			<desc>#XPPP: 0,0,0</desc>
			<rect x="0" y="512.607" width="126.05" height="12.6" class="st1"/>
			<text x="0" y="521.91" class="st6">#XPPP: 0,0,0</text>		</g>
		<g id="shape48-118" transform="translate(260.875,-39.6)">
			<title>Sheet.48</title>
			<path d="M0 525.21 L195 525.21" class="st7"/>
		</g>
		<g id="shape49-121" transform="translate(265.725,-21.675)">
			<title>Sheet.49</title>
			<desc>CMUX channel unused</desc>
			<rect x="0" y="513.507" width="185.3" height="11.7" class="st5"/>
			<text x="36.09" y="522.66" class="st13">CMUX channel unused</text>		</g>
		<g id="shape50-124" transform="translate(77.85,-166.2)">
			<title>Sheet.50</title>
			<desc>#XPPP: 1,1,0</desc>
			<rect x="0" y="512.607" width="126.05" height="12.6" class="st1"/>
			<text x="0" y="521.91" class="st6">#XPPP: 1,1,0</text>		</g>
		<g id="shape52-127" transform="translate(16,-515.1)">
			<title>Dynamic connector</title>
			<path d="M7.88 525.21 L10.08 1017.92" class="st14"/>
		</g>
	</g>
</svg>
