<?xml version="1.0" encoding="UTF-8" standalone="no"?>
<!DOCTYPE svg PUBLIC "-//W3C//DTD SVG 1.1//EN" "http://www.w3.org/Graphics/SVG/1.1/DTD/svg11.dtd">
<!-- Generated by Microsoft Visio, SVG Export ppp-cmux-sequence.svg Page-1 -->
<svg xmlns="http://www.w3.org/2000/svg" xmlns:xlink="http://www.w3.org/1999/xlink" xmlns:ev="http://www.w3.org/2001/xml-events"
		xmlns:v="http://schemas.microsoft.com/visio/2003/SVGExtensions/" width="6.16215in" height="6.4375in"
		viewBox="0 0 443.675 463.5" xml:space="preserve" color-interpolation-filters="sRGB" class="st11">
	<v:documentProperties v:langID="1033" v:viewMarkup="false"/>

	<style type="text/css">
	<![CDATA[
		.st1 {stroke:#333f48;stroke-linecap:butt;stroke-width:1.125}
		.st2 {fill:#333f48;stroke:none;stroke-linecap:butt;stroke-width:0.75}
		.st3 {fill:none;stroke:none;stroke-linecap:butt;stroke-width:0.75}
		.st4 {fill:#333f48;font-family:Arial;font-size:0.75em}
		.st5 {fill:#0077c8;stroke:none;stroke-linecap:butt;stroke-width:0.75}
		.st6 {fill:#ffffff;font-family:Arial;font-size:0.812508em}
		.st7 {fill:#d9e1e2;stroke:none;stroke-linecap:butt;stroke-width:0.75}
		.st8 {stroke:#333f48;stroke-dasharray:4.5,2.25;stroke-linecap:butt;stroke-width:1.125}
		.st9 {stroke:#768692;stroke-linecap:butt;stroke-width:0.75}
		.st10 {fill:#6ad1e3;stroke:none;stroke-linecap:butt;stroke-width:0.75}
		.st11 {fill:none;fill-rule:evenodd;font-size:12px;overflow:visible;stroke-linecap:square;stroke-miterlimit:3}
	]]>
	</style>

	<g v:mID="0" v:index="1" v:groupContext="foregroundPage">
		<title>Page-1</title>
		<v:pageProperties v:drawingScale="1" v:pageScale="1" v:drawingUnits="19" v:shadowOffsetX="9" v:shadowOffsetY="-9"/>
		<g id="shape1-1" v:mID="1" v:groupContext="shape" transform="translate(473.65,1.125) rotate(90)">
			<title>Sheet.1</title>
			<path d="M0 463.5 L444.75 463.5" class="st1"/>
		</g>
		<g id="shape2-4" v:mID="2" v:groupContext="shape" transform="translate(6.4,-12)">
			<title>Sheet.2</title>
			<path d="M0 456 L7.5 456 L3.75 463.5 L0 456 Z" class="st2"/>
		</g>
		<g id="shape3-6" v:mID="3" v:groupContext="shape" transform="translate(3.375,-0.75)">
			<title>Sheet.3</title>
			<desc>Time</desc>
			<v:textBlock v:margins="rect(0,0,0,0)"/>
			<v:textRect cx="18.025" cy="458.1" width="36.05" height="10.8"/>
			<rect x="0" y="452.7" width="36.05" height="10.8" class="st3"/>
			<text x="0" y="460.8" class="st4" v:langID="1033"><v:paragraph/><v:tabList/>Time</text>		</g>
		<g id="shape4-9" v:mID="4" v:groupContext="shape" transform="translate(21.4,-442.875)">
			<title>Sheet.4</title>
			<rect x="0" y="444" width="411.75" height="19.5" class="st5"/>
		</g>
		<g id="shape5-11" v:mID="5" v:groupContext="shape" transform="translate(119.625,-445.2)">
			<title>Sheet.5</title>
			<desc>UART (AT command mode)</desc>
			<v:textBlock v:margins="rect(0,0,0,0)"/>
			<v:textRect cx="107.275" cy="457.65" width="214.56" height="11.7"/>
			<rect x="0" y="451.8" width="214.55" height="11.7" class="st3"/>
			<text x="46.87" y="460.58" class="st6" v:langID="1033"><v:paragraph v:horizAlign="1"/><v:tabList/>UART (AT command mode)</text>		</g>
		<g id="shape6-14" v:mID="6" v:groupContext="shape" transform="translate(21.4,-379.125)">
			<title>Sheet.6</title>
			<rect x="0" y="399.75" width="411.75" height="63.75" class="st7"/>
		</g>
		<g id="shape7-16" v:mID="7" v:groupContext="shape" transform="translate(30.375,-425.925)">
			<title>Sheet.7</title>
			<desc>AT#XCMUXURC=2</desc>
			<v:textBlock v:margins="rect(0,0,0,0)"/>
			<v:textRect cx="58.525" cy="458.1" width="117.06" height="10.8"/>
			<rect x="0" y="452.7" width="117.05" height="10.8" class="st3"/>
			<text x="0" y="460.8" class="st4" v:langID="1033"><v:paragraph/><v:tabList/>AT#XCMUXURC=2</text>		</g>
		<g id="shape8-19" v:mID="8" v:groupContext="shape" transform="translate(150.375,-425.925)">
			<title>Sheet.8</title>
			<desc>// Route URCs to DLC2</desc>
			<v:textBlock v:margins="rect(0,0,0,0)"/>
			<v:textRect cx="94.525" cy="458.1" width="189.06" height="10.8"/>
			<rect x="0" y="452.7" width="189.05" height="10.8" class="st3"/>
			<text x="0" y="460.8" class="st4" v:langID="1033"><v:paragraph/><v:tabList/>// Route URCs to DLC2</text>		</g>
		<g id="shape9-22" v:mID="9" v:groupContext="shape" transform="translate(30.375,-413.175)">
			<title>Sheet.9</title>
			<desc>OK</desc>
			<v:textBlock v:margins="rect(0,0,0,0)"/>
			<v:textRect cx="9.025" cy="458.1" width="18.05" height="10.8"/>
			<rect x="0" y="452.7" width="18.05" height="10.8" class="st3"/>
			<text x="0" y="460.8" class="st4" v:langID="1033"><v:paragraph/><v:tabList/>OK</text>		</g>
		<g id="shape10-25" v:mID="10" v:groupContext="shape" transform="translate(30.375,-400.425)">
			<title>Sheet.10</title>
			<desc>AT+CMUX=0</desc>
			<v:textBlock v:margins="rect(0,0,0,0)"/>
			<v:textRect cx="40.525" cy="458.1" width="81.06" height="10.8"/>
			<rect x="0" y="452.7" width="81.05" height="10.8" class="st3"/>
			<text x="0" y="460.8" class="st4" v:langID="1033"><v:paragraph/><v:tabList/>AT+CMUX=0</text>		</g>
		<g id="shape11-28" v:mID="11" v:groupContext="shape" transform="translate(150.375,-400.425)">
			<title>Sheet.11</title>
			<desc>// Start CMUX multiplexer</desc>
			<v:textBlock v:margins="rect(0,0,0,0)"/>
			<v:textRect cx="112.525" cy="458.1" width="225.06" height="10.8"/>
			<rect x="0" y="452.7" width="225.05" height="10.8" class="st3"/>
			<text x="0" y="460.8" class="st4" v:langID="1033"><v:paragraph/><v:tabList/>// Start CMUX multiplexer</text>		</g>
		<g id="shape12-31" v:mID="12" v:groupContext="shape" transform="translate(30.375,-387.675)">
			<title>Sheet.12</title>
			<desc>OK</desc>
			<v:textBlock v:margins="rect(0,0,0,0)"/>
			<v:textRect cx="9.025" cy="458.1" width="18.05" height="10.8"/>
			<rect x="0" y="452.7" width="18.05" height="10.8" class="st3"/>
			<text x="0" y="460.8" class="st4" v:langID="1033"><v:paragraph/><v:tabList/>OK</text>		</g>
		<g id="shape13-34" v:mID="13" v:groupContext="shape" transform="translate(21.4,-379.125)">
			<title>Sheet.13</title>
			<path d="M0 463.5 L411.75 463.5" class="st8"/>
		</g>
		<g id="shape14-37" v:mID="14" v:groupContext="shape" transform="translate(21.4,-357.375)">
			<title>Sheet.14</title>
			<rect x="0" y="444" width="411.75" height="19.5" class="st5"/>
		</g>
		<g id="shape15-39" v:mID="15" v:groupContext="shape" transform="translate(51.375,-360.45)">
			<title>Sheet.15</title>
			<desc>CMUX engaged — two DLC channels open</desc>
			<v:textBlock v:margins="rect(0,0,0,0)"/>
			<v:textRect cx="175.525" cy="457.65" width="351.05" height="11.7"/>
			<rect x="0" y="451.8" width="351.05" height="11.7" class="st3"/>
			<text x="81.49" y="460.58" class="st6" v:langID="1033"><v:paragraph v:horizAlign="1"/><v:tabList/>CMUX engaged — two DLC channels open</text>		</g>
		<g id="shape16-42" v:mID="16" v:groupContext="shape" transform="translate(21.4,-337.875)">
			<title>Sheet.16</title>
			<rect x="0" y="444" width="202.5" height="19.5" class="st7"/>
		</g>
		<g id="shape17-44" v:mID="17" v:groupContext="shape" transform="translate(34.875,-340.95)">
			<title>Sheet.17</title>
			<desc>DLC1 (PPP channel)</desc>
			<v:textBlock v:margins="rect(0,0,0,0)"/>
			<v:textRect cx="87.775" cy="457.65" width="175.56" height="11.7"/>
			<rect x="0" y="451.8" width="175.55" height="11.7" class="st3"/>
			<text x="42.52" y="460.58" class="st6" v:langID="1033"><v:paragraph v:horizAlign="1"/><v:tabList/>DLC1 (PPP channel)</text>		</g>
		<g id="shape18-47" v:mID="18" v:groupContext="shape" transform="translate(226.9,-337.875)">
			<title>Sheet.18</title>
			<rect x="0" y="444" width="206.25" height="19.5" class="st7"/>
		</g>
		<g id="shape19-49" v:mID="19" v:groupContext="shape" transform="translate(246.75,-340.95)">
			<title>Sheet.19</title>
			<desc>DLC2 (AT channel)</desc>
			<v:textBlock v:margins="rect(0,0,0,0)"/>
			<v:textRect cx="82.9" cy="457.65" width="165.8" height="11.7"/>
			<rect x="0" y="451.8" width="165.8" height="11.7" class="st3"/>
			<text x="41.17" y="460.58" class="st6" v:langID="1033"><v:paragraph v:horizAlign="1"/><v:tabList/>DLC2 (AT channel)</text>		</g>
		<g id="shape20-52" v:mID="20" v:groupContext="shape" transform="translate(687.4,106.125) rotate(90)">
			<title>Sheet.20</title>
			<path d="M0 463.5 L345 463.5" class="st9"/>
		</g>
		<g id="shape21-55" v:mID="21" v:groupContext="shape" transform="translate(21.4,-265.875)">
			<title>Sheet.21</title>
			<rect x="0" y="391.5" width="202.5" height="72" class="st7"/>
		</g>
		<g id="shape22-57" v:mID="22" v:groupContext="shape" transform="translate(30.375,-320.925)">
			<title>Sheet.22</title>
			<desc>AT+CFUN=1</desc>
			<v:textBlock v:margins="rect(0,0,0,0)"/>
			<v:textRect cx="40.525" cy="458.1" width="81.06" height="10.8"/>
			<rect x="0" y="452.7" width="81.05" height="10.8" class="st3"/>
			<text x="0" y="460.8" class="st4" v:langID="1033"><v:paragraph/><v:tabList/>AT+CFUN=1</text>		</g>
		<g id="shape23-60" v:mID="23" v:groupContext="shape" transform="translate(30.375,-308.175)">
			<title>Sheet.23</title>
			<desc>OK</desc>
			<v:textBlock v:margins="rect(0,0,0,0)"/>
			<v:textRect cx="9.025" cy="458.1" width="18.05" height="10.8"/>
			<rect x="0" y="452.7" width="18.05" height="10.8" class="st3"/>
			<text x="0" y="460.8" class="st4" v:langID="1033"><v:paragraph/><v:tabList/>OK</text>		</g>
		<g id="shape24-63" v:mID="24" v:groupContext="shape" transform="translate(30.375,-295.425)">
			<title>Sheet.24</title>
			<desc>AT+CGDATA</desc>
			<v:textBlock v:margins="rect(0,0,0,0)"/>
			<v:textRect cx="40.525" cy="458.1" width="81.06" height="10.8"/>
			<rect x="0" y="452.7" width="81.05" height="10.8" class="st3"/>
			<text x="0" y="460.8" class="st4" v:langID="1033"><v:paragraph/><v:tabList/>AT+CGDATA</text>		</g>
		<g id="shape25-66" v:mID="25" v:groupContext="shape" transform="translate(30.375,-282.675)">
			<title>Sheet.25</title>
			<desc>CONNECT</desc>
			<v:textBlock v:margins="rect(0,0,0,0)"/>
			<v:textRect cx="31.525" cy="458.1" width="63.05" height="10.8"/>
			<rect x="0" y="452.7" width="63.05" height="10.8" class="st3"/>
			<text x="0" y="460.8" class="st4" v:langID="1033"><v:paragraph/><v:tabList/>CONNECT</text>		</g>
		<g id="shape26-69" v:mID="26" v:groupContext="shape" transform="translate(21.4,-268.875)">
			<title>Sheet.26</title>
			<path d="M0 463.5 L201 463.5" class="st8"/>
		</g>
		<g id="shape27-72" v:mID="27" v:groupContext="shape" transform="translate(226.9,-12.375)">
			<title>Sheet.27</title>
			<rect x="0" y="138" width="206.25" height="325.5" class="st7"/>
		</g>
		<g id="shape28-74" v:mID="28" v:groupContext="shape" transform="translate(235.875,-320.925)">
			<title>Sheet.28</title>
			<desc>// AT commands continue</desc>
			<v:textBlock v:margins="rect(0,0,0,0)"/>
			<v:textRect cx="103.525" cy="458.1" width="207.06" height="10.8"/>
			<rect x="0" y="452.7" width="207.05" height="10.8" class="st3"/>
			<text x="0" y="460.8" class="st4" v:langID="1033"><v:paragraph/><v:tabList/>// AT commands continue</text>		</g>
		<g id="shape29-77" v:mID="29" v:groupContext="shape" transform="translate(235.875,-308.175)">
			<title>Sheet.29</title>
			<desc>// on this channel</desc>
			<v:textBlock v:margins="rect(0,0,0,0)"/>
			<v:textRect cx="81.025" cy="458.1" width="162.06" height="10.8"/>
			<rect x="0" y="452.7" width="162.05" height="10.8" class="st3"/>
			<text x="0" y="460.8" class="st4" v:langID="1033"><v:paragraph/><v:tabList/>// on this channel</text>		</g>
		<g id="shape30-80" v:mID="30" v:groupContext="shape" transform="translate(235.875,-206.925)">
			<title>Sheet.30</title>
			<desc>+CGEV: ME PDN ACT 0</desc>
			<v:textBlock v:margins="rect(0,0,0,0)"/>
			<v:textRect cx="85.525" cy="458.1" width="171.06" height="10.8"/>
			<rect x="0" y="452.7" width="171.05" height="10.8" class="st3"/>
			<text x="0" y="460.8" class="st4" v:langID="1033"><v:paragraph/><v:tabList/>+CGEV: ME PDN ACT 0</text>		</g>
		<g id="shape31-83" v:mID="31" v:groupContext="shape" transform="translate(235.875,-194.175)">
			<title>Sheet.31</title>
			<desc>// URC on DLC2</desc>
			<v:textBlock v:margins="rect(0,0,0,0)"/>
			<v:textRect cx="63.025" cy="458.1" width="126.06" height="10.8"/>
			<rect x="0" y="452.7" width="126.05" height="10.8" class="st3"/>
			<text x="0" y="460.8" class="st4" v:langID="1033"><v:paragraph/><v:tabList/>// URC on DLC2</text>		</g>
		<g id="shape32-86" v:mID="32" v:groupContext="shape" transform="translate(21.4,-246.375)">
			<title>Sheet.32</title>
			<rect x="0" y="444" width="202.5" height="19.5" class="st5"/>
		</g>
		<g id="shape33-88" v:mID="33" v:groupContext="shape" transform="translate(0.75,-249.45)">
			<title>Sheet.33</title>
			<desc>DLC1 enters PPP data mode</desc>
			<v:textBlock v:margins="rect(0,0,0,0)"/>
			<v:textRect cx="121.9" cy="457.65" width="243.8" height="11.7"/>
			<rect x="0" y="451.8" width="243.8" height="11.7" class="st3"/>
			<text x="59.03" y="460.58" class="st6" v:langID="1033"><v:paragraph v:horizAlign="1"/><v:tabList/>DLC1 enters PPP data mode</text>		</g>
		<g id="shape34-91" v:mID="34" v:groupContext="shape" transform="translate(21.4,-79.875)">
			<title>Sheet.34</title>
			<rect x="0" y="297" width="202.5" height="166.5" class="st10"/>
		</g>
		<g id="shape35-93" v:mID="35" v:groupContext="shape" transform="translate(30.375,-230.175)">
			<title>Sheet.35</title>
			<desc>sent [LCP ConfReq ..]</desc>
			<v:textBlock v:margins="rect(0,0,0,0)"/>
			<v:textRect cx="94.525" cy="458.1" width="189.06" height="10.8"/>
			<rect x="0" y="452.7" width="189.05" height="10.8" class="st3"/>
			<text x="0" y="460.8" class="st4" v:langID="1033"><v:paragraph/><v:tabList/>sent [LCP ConfReq ..]</text>		</g>
		<g id="shape36-96" v:mID="36" v:groupContext="shape" transform="translate(30.375,-217.425)">
			<title>Sheet.36</title>
			<desc>...</desc>
			<v:textBlock v:margins="rect(0,0,0,0)"/>
			<v:textRect cx="13.525" cy="458.1" width="27.05" height="10.8"/>
			<rect x="0" y="452.7" width="27.05" height="10.8" class="st3"/>
			<text x="0" y="460.8" class="st4" v:langID="1033"><v:paragraph/><v:tabList/>...</text>		</g>
		<g id="shape37-99" v:mID="37" v:groupContext="shape" transform="translate(30.375,-204.675)">
			<title>Sheet.37</title>
			<desc>rcvd [LCP ConfAck ...]</desc>
			<v:textBlock v:margins="rect(0,0,0,0)"/>
			<v:textRect cx="99.025" cy="458.1" width="198.06" height="10.8"/>
			<rect x="0" y="452.7" width="198.05" height="10.8" class="st3"/>
			<text x="0" y="460.8" class="st4" v:langID="1033"><v:paragraph/><v:tabList/>rcvd [LCP ConfAck ...]</text>		</g>
		<g id="shape38-102" v:mID="38" v:groupContext="shape" transform="translate(30.375,-191.925)">
			<title>Sheet.38</title>
			<desc>sent [IPCP ConfReq ...]</desc>
			<v:textBlock v:margins="rect(0,0,0,0)"/>
			<v:textRect cx="103.525" cy="458.1" width="207.06" height="10.8"/>
			<rect x="0" y="452.7" width="207.05" height="10.8" class="st3"/>
			<text x="0" y="460.8" class="st4" v:langID="1033"><v:paragraph/><v:tabList/>sent [IPCP ConfReq ...]</text>		</g>
		<g id="shape39-105" v:mID="39" v:groupContext="shape" transform="translate(30.375,-179.175)">
			<title>Sheet.39</title>
			<desc>...</desc>
			<v:textBlock v:margins="rect(0,0,0,0)"/>
			<v:textRect cx="13.525" cy="458.1" width="27.05" height="10.8"/>
			<rect x="0" y="452.7" width="27.05" height="10.8" class="st3"/>
			<text x="0" y="460.8" class="st4" v:langID="1033"><v:paragraph/><v:tabList/>...</text>		</g>
		<g id="shape40-108" v:mID="40" v:groupContext="shape" transform="translate(30.375,-166.425)">
			<title>Sheet.40</title>
			<desc>rcvd [IPCP ConfAck ...]</desc>
			<v:textBlock v:margins="rect(0,0,0,0)"/>
			<v:textRect cx="103.525" cy="458.1" width="207.06" height="10.8"/>
			<rect x="0" y="452.7" width="207.05" height="10.8" class="st3"/>
			<text x="0" y="460.8" class="st4" v:langID="1033"><v:paragraph/><v:tabList/>rcvd [IPCP ConfAck ...]</text>		</g>
		<g id="shape41-111" v:mID="41" v:groupContext="shape" transform="translate(30.375,-145.425)">
			<title>Sheet.41</title>
			<desc>// ... IP data traffic</desc>
			<v:textBlock v:margins="rect(0,0,0,0)"/>
			<v:textRect cx="99.025" cy="458.1" width="198.06" height="10.8"/>
			<rect x="0" y="452.7" width="198.05" height="10.8" class="st3"/>
			<text x="0" y="460.8" class="st4" v:langID="1033"><v:paragraph/><v:tabList/>// ... IP data traffic</text>		</g>
		<g id="shape42-114" v:mID="42" v:groupContext="shape" transform="translate(30.375,-117.675)">
			<title>Sheet.42</title>
			<desc>// PPP termination</desc>
			<v:textBlock v:margins="rect(0,0,0,0)"/>
			<v:textRect cx="81.025" cy="458.1" width="162.06" height="10.8"/>
			<rect x="0" y="452.7" width="162.05" height="10.8" class="st3"/>
			<text x="0" y="460.8" class="st4" v:langID="1033"><v:paragraph/><v:tabList/>// PPP termination</text>		</g>
		<g id="shape43-117" v:mID="43" v:groupContext="shape" transform="translate(30.375,-104.925)">
			<title>Sheet.43</title>
			<desc>sent [LCP TermReq ...]</desc>
			<v:textBlock v:margins="rect(0,0,0,0)"/>
			<v:textRect cx="99.025" cy="458.1" width="198.06" height="10.8"/>
			<rect x="0" y="452.7" width="198.05" height="10.8" class="st3"/>
			<text x="0" y="460.8" class="st4" v:langID="1033"><v:paragraph/><v:tabList/>sent [LCP TermReq ...]</text>		</g>
		<g id="shape44-120" v:mID="44" v:groupContext="shape" transform="translate(30.375,-92.175)">
			<title>Sheet.44</title>
			<desc>rcvd [LCP TermAck ...]</desc>
			<v:textBlock v:margins="rect(0,0,0,0)"/>
			<v:textRect cx="99.025" cy="458.1" width="198.06" height="10.8"/>
			<rect x="0" y="452.7" width="198.05" height="10.8" class="st3"/>
			<text x="0" y="460.8" class="st4" v:langID="1033"><v:paragraph/><v:tabList/>rcvd [LCP TermAck ...]</text>		</g>
		<g id="shape45-123" v:mID="45" v:groupContext="shape" transform="translate(21.4,-79.875)">
			<title>Sheet.45</title>
			<path d="M0 463.5 L201 463.5" class="st8"/>
		</g>
		<g id="shape46-126" v:mID="46" v:groupContext="shape" transform="translate(21.4,-58.125)">
			<title>Sheet.46</title>
			<rect x="0" y="444" width="202.5" height="19.5" class="st5"/>
		</g>
		<g id="shape47-128" v:mID="47" v:groupContext="shape" transform="translate(10.5,-61.2)">
			<title>Sheet.47</title>
			<desc>DLC1 returns to AT mode</desc>
			<v:textBlock v:margins="rect(0,0,0,0)"/>
			<v:textRect cx="112.15" cy="457.65" width="224.3" height="11.7"/>
			<rect x="0" y="451.8" width="224.3" height="11.7" class="st3"/>
			<text x="56.61" y="460.58" class="st6" v:langID="1033"><v:paragraph v:horizAlign="1"/><v:tabList/>DLC1 returns to AT mode</text>		</g>
		<g id="shape48-131" v:mID="48" v:groupContext="shape" transform="translate(21.4,-58.125)">
			<title>Sheet.48</title>
			<path d="M0 463.5 L411.75 463.5" class="st8"/>
		</g>
		<g id="shape49-134" v:mID="49" v:groupContext="shape" transform="translate(21.4,-12.375)">
			<title>Sheet.49</title>
			<rect x="0" y="420" width="411.75" height="43.5" class="st7"/>
		</g>
		<g id="shape50-136" v:mID="50" v:groupContext="shape" transform="translate(30.375,-38.925)">
			<title>Sheet.50</title>
			<desc>AT+CFUN=0</desc>
			<v:textBlock v:margins="rect(0,0,0,0)"/>
			<v:textRect cx="40.525" cy="458.1" width="81.06" height="10.8"/>
			<rect x="0" y="452.7" width="81.05" height="10.8" class="st3"/>
			<text x="0" y="460.8" class="st4" v:langID="1033"><v:paragraph/><v:tabList/>AT+CFUN=0</text>		</g>
		<g id="shape51-139" v:mID="51" v:groupContext="shape" transform="translate(30.375,-26.175)">
			<title>Sheet.51</title>
			<desc>OK</desc>
			<v:textBlock v:margins="rect(0,0,0,0)"/>
			<v:textRect cx="9.025" cy="458.1" width="18.05" height="10.8"/>
			<rect x="0" y="452.7" width="18.05" height="10.8" class="st3"/>
			<text x="0" y="460.8" class="st4" v:langID="1033"><v:paragraph/><v:tabList/>OK</text>		</g>
	</g>
</svg>
